<?xml version="1.0" encoding="UTF-8"?> <svg xmlns="http://www.w3.org/2000/svg" xmlns:xlink="http://www.w3.org/1999/xlink" width="1024px" height="1024px" viewBox="0 0 1024 1024"><!-- Generator: Sketch 50.2 (55047) - http://www.bohemiancoding.com/sketch --><title>White</title><desc>Created with Sketch.</desc><defs></defs><g id="White" stroke="none" stroke-width="1" fill="none" fill-rule="evenodd"><g id="Group" transform="translate(2.000000, 90.000000)" fill="#FFFFFF" fill-rule="nonzero"><g id="Shape"><path d="M799.692903,220.922581 C783.226906,187.290507 761.542864,156.475755 735.445161,129.621419 C668.389677,60.1876129 574.512,15.4619355 471.088,3.66941935 C452.927975,1.58872566 434.665387,0.530024907 416.386581,0.498322581 C399.540129,0.498322581 381.900903,1.48929032 364.030452,3.47122581 C260.243097,14.7021935 165.836903,59.2957419 98.2859355,128.663484 C72.0870879,155.457716 50.2917142,186.227656 33.707871,219.832516 C11.9246754,263.732774 0.574935809,312.070908 0.543483871,361.078452 C0.543483871,424.170065 19.7021935,486.27071 55.9716129,540.84 C74.3375484,568.488 104.363871,603.270968 132.011871,627.846968 L119.525677,726.117935 C119.030194,727.439226 118.53471,728.760516 118.204387,730.180903 C117.874065,731.502194 117.808,732.823484 117.675871,734.144774 C117.609806,735.135742 117.345548,736.12671 117.345548,737.117677 C117.345548,738.207742 117.609806,739.264774 117.675871,740.354839 C119.327484,756.540645 132.804645,769.158968 149.386839,769.158968 C155.167484,769.158968 160.51871,767.507355 165.176258,764.864774 L165.63871,764.534452 C166.299355,764.204129 167.026065,763.807742 167.68671,763.378323 L197.514839,748.381677 L286.371613,703.689032 C311.769702,710.894552 337.740796,715.900894 363.997419,718.652645 C399.573156,722.530089 435.470811,722.419294 471.021935,718.322323 C506.800479,714.235327 541.983913,706.01034 575.866323,693.812387 C550.225706,685.303499 533.883303,660.186652 536.491871,633.29729 C512.708645,640.89471 487.868387,646.278968 462.16929,649.218839 C432.367589,652.653561 402.275096,652.742199 372.453677,649.483097 C369.480774,649.152774 366.441806,648.65729 363.402839,648.260903 C343.518003,645.628482 323.862177,641.487508 304.605419,635.873806 C300.652933,634.619596 296.530188,633.98447 292.383484,633.990968 C285.777032,633.990968 279.434839,635.708645 272.960516,639.044903 C272.101677,639.540387 271.308903,639.903742 270.450065,640.366194 L197.448774,683.440258 L194.244645,685.323097 C192.692129,686.314065 191.767226,686.644387 190.941419,686.644387 C188.230802,686.572332 186.081598,684.334804 186.11871,681.623484 L188.926452,670.227355 L192.097548,657.840258 L197.448774,637.558452 L203.328516,614.898323 C207.36031,602.335156 202.919509,588.600583 192.295742,580.776 C181.620771,572.848066 171.438967,564.276818 161.806968,555.109935 C145.290839,539.419613 130.756645,522.275871 118.53471,503.909935 C89.7966452,460.703742 74.667871,411.683871 74.667871,362.102452 C74.667871,323.652903 83.4544516,286.227355 100.763355,250.915871 C114.097924,224.002832 131.600548,199.365381 152.624,177.914581 C208.118194,120.834839 286.206452,84.2020645 372.453677,74.8539355 C387.450323,73.2023226 402.18271,72.3765161 416.320516,72.3765161 C431.185032,72.3765161 446.578065,73.2683871 462.16929,75.0190968 C548.053161,84.7966452 625.678968,121.594581 680.743742,178.674323 C701.67058,200.193821 719.062206,224.887701 732.274065,251.840774 C749.160112,286.136589 757.973479,323.841979 758.039226,362.069419 C758.039226,366.03329 757.774968,369.997161 757.576774,373.961032 C780.306488,359.938195 809.690485,363.354939 828.596129,382.219097 C829.587097,383.210065 830.346839,384.300129 831.23871,385.324129 C831.899355,377.198194 832.229677,369.138323 832.229677,360.880258 C832.20088,312.3212 821.059899,264.412722 799.659871,220.823484"></path><path d="M795.729032,724.598452 C793.4432,724.068526 791.1264,723.682392 788.792258,723.442323 C750.654627,716.357977 715.884721,696.983355 689.794581,668.278452 C686.079299,664.658563 680.648628,663.426385 675.734918,665.088423 C670.821207,666.75046 667.253583,671.026264 666.498564,676.15821 C665.743545,681.290155 667.928531,686.412291 672.155355,689.419097 L676.119226,693.382968 C701.043045,718.276985 718.02213,750.004996 724.907871,784.552 C725.15295,788.53064 725.817275,792.472302 726.889806,796.311484 C732.333254,816.170493 747.929766,831.634563 767.834473,836.90846 C787.73918,842.182357 808.946605,836.469757 823.509161,821.911484 C838.37783,807.024968 844.007635,785.247851 838.216602,765.020405 C832.425569,744.792958 816.123983,729.294706 795.629935,724.532387"></path><path d="M987.117935,576.779097 C971.359727,560.974779 947.911288,555.653602 926.874935,563.108095 C905.838582,570.562588 890.972636,589.460943 888.681806,611.661161 C881.598925,649.77693 862.264226,684.537634 833.617032,710.658839 C829.69239,714.323492 828.23484,719.923806 829.875002,725.036767 C831.515164,730.149728 835.958491,733.857128 841.282546,734.554936 C846.606601,735.252744 851.855269,732.815644 854.757677,728.298065 L858.655484,724.334194 C883.502068,699.36299 915.214067,682.345673 949.758452,675.446452 C953.726121,675.200288 957.656718,674.535961 961.484903,673.464516 C981.362422,667.991645 996.834173,652.367984 1002.11257,632.437943 C1007.39097,612.507901 1001.68074,591.274269 987.117935,576.68"></path><path d="M742.216774,413.071226 C726.485186,428.856635 721.201933,452.265987 728.628716,473.278005 C736.055499,494.290023 754.875766,509.179889 777.032774,511.573419 C815.159382,518.662226 849.91743,538.036705 875.997419,566.73729 C879.708594,570.503704 885.238033,571.833094 890.255708,570.165275 C895.273383,568.497455 898.906746,564.122451 899.624747,558.883829 C900.342748,553.645208 898.02053,548.453937 893.636645,545.497548 C866.522138,520.079977 848.041344,486.814547 840.785032,450.364645 C840.579906,446.408079 839.937368,442.486384 838.869161,438.671226 C833.448865,418.787874 817.852752,403.29402 797.934175,398.004637 C778.015598,392.715254 756.787427,398.430411 742.216774,413.005161"></path><path d="M676.581677,626.889032 L677.077161,623.387613 C684.160236,585.236193 703.506489,550.440774 732.174968,524.290839 C736.09961,520.626186 737.55716,515.025871 735.916998,509.912911 C734.276836,504.79995 729.833509,501.092549 724.509454,500.394741 C719.185399,499.696933 713.936731,502.134033 711.034323,506.651613 C685.672537,533.768744 652.447673,552.252674 616.033548,559.503226 C612.066438,559.754229 608.136344,560.41847 604.307097,561.485161 C584.429578,566.958032 568.957827,582.581693 563.679427,602.511735 C558.401027,622.441777 564.111256,643.675409 578.674065,658.269677 C593.989656,673.549904 616.555657,678.999025 637.156536,672.391721 C657.757415,665.784417 672.944478,648.226785 676.515613,626.889032"></path></g></g></g></svg> 