<?xml version="1.0" encoding="UTF-8"?> <svg xmlns="http://www.w3.org/2000/svg" xmlns:xlink="http://www.w3.org/1999/xlink" width="1024px" height="1024px" viewBox="0 0 1024 1024"><!-- Generator: Sketch 50.2 (55047) - http://www.bohemiancoding.com/sketch --><title>White</title><desc>Created with Sketch.</desc><defs></defs><g id="White" stroke="none" stroke-width="1" fill="none" fill-rule="evenodd"><path d="M512,0 C223.549296,0 0,211.292819 0,496.656598 C0,645.931729 61.1927565,774.912036 160.811268,864.02383 C169.155734,871.544247 174.203622,881.949208 174.615694,893.178324 L177.397183,984.247487 C178.324346,1013.29896 208.302616,1032.15151 234.881288,1020.51032 L336.457143,975.696875 C345.110664,971.885157 354.691348,971.164021 363.756942,973.636487 C410.424145,986.513914 460.181891,993.313195 512,993.313195 C800.450704,993.313195 1024,782.020376 1024,496.656598 C1024,211.292819 800.450704,0 512,0 Z M819.406036,382.099009 L668.999598,620.691973 C645.099396,658.603117 593.796378,668.080903 557.946076,641.192836 L438.342052,551.462926 C427.319115,543.221373 412.278471,543.324392 401.358551,551.565945 L239.826157,674.159049 C218.295372,690.539136 190.06841,664.681263 204.593964,641.810953 L355.000402,403.217989 C378.900604,365.306844 430.203622,355.829058 466.053924,382.717125 L585.657948,472.447035 C596.680885,480.688588 611.721529,480.585569 622.641449,472.344016 L784.173843,349.750912 C805.704628,333.370825 833.93159,359.228699 819.406036,382.099009 Z" id="Shape" fill="#FFFFFF"></path></g></svg> 