<?xml version="1.0" encoding="UTF-8"?> <svg xmlns="http://www.w3.org/2000/svg" xmlns:xlink="http://www.w3.org/1999/xlink" width="773px" height="566px" viewBox="0 0 773 566"><!-- Generator: Sketch 52.6 (67491) - http://www.bohemiancoding.com/sketch --><title>Hero</title><desc>Created with Sketch.</desc><defs><circle id="path-1" cx="17" cy="17" r="17"></circle><linearGradient x1="50.0007039%" y1="100.002858%" x2="50.0007039%" y2="0.00300051009%" id="linearGradient-3"><stop stop-color="#FFFFFF" offset="0%"></stop><stop stop-color="#FFFFFF" offset="100%"></stop></linearGradient></defs><g id="HERO" stroke="none" stroke-width="1" fill="none" fill-rule="evenodd"><g id="Hero"><g transform="translate(-2.000000, -4.000000)"><g id="Background" transform="translate(2.000000, 4.000000)" fill="#FFFFFF"><rect x="0" y="0" width="773" height="566" rx="8"></rect></g><g id="Messaging" transform="translate(94.000000, 4.000000)"><g id="Chat" transform="translate(175.000000, 0.000000)"><rect id="Back" fill="#F5F7FA" x="0" y="0" width="518" height="519"></rect><g id="Auto-Message" transform="translate(88.742857, 363.690385)"><rect id="Rectangle" fill="#3E82F7" x="0" y="34.4059295" width="311.657143" height="17.2029648" rx="8.60148238"></rect><rect id="Rectangle" fill="#3E82F7" x="80.9142857" y="7.93982988" width="230.742857" height="17.2029648" rx="8.60148238"></rect><path d="M16.5410156,67.5898438 C16.0996072,68.0234397 15.5839873,68.2402344 14.9941406,68.2402344 C14.2402306,68.2402344 13.636721,67.9814479 13.1835938,67.4638672 C12.7304665,66.9462865 12.5039062,66.2480513 12.5039062,65.3691406 C12.5039062,64.8105441 12.6259753,64.2978539 12.8701172,63.8310547 C13.114259,63.3642555 13.4550759,63.0009779 13.8925781,62.7412109 C14.3300803,62.481444 14.8222629,62.3515625 15.3691406,62.3515625 C15.9316434,62.3515625 16.4316384,62.4921861 16.8691406,62.7734375 C17.3066428,63.0546889 17.6464832,63.4589817 17.8886719,63.9863281 C18.1308606,64.5136745 18.2539062,65.1171841 18.2578125,65.796875 L18.2578125,66.4238281 C18.2578125,67.8457102 17.9043004,68.9628866 17.1972656,69.7753906 C16.4902308,70.5878947 15.4882877,71.0214841 14.1914062,71.0761719 L13.7753906,71.0820312 L13.7753906,69.6699219 L14.1503906,69.6640625 C15.6230542,69.5976559 16.4199213,68.9062566 16.5410156,67.5898438 Z M15.4101562,66.9453125 C15.6835951,66.9453125 15.9189443,66.8750007 16.1162109,66.734375 C16.3134775,66.5937493 16.4628901,66.4238291 16.5644531,66.2246094 L16.5644531,65.5273438 C16.5644531,64.9531221 16.4550792,64.5078141 16.2363281,64.1914062 C16.017577,63.8749984 15.7246112,63.7167969 15.3574219,63.7167969 C15.0175764,63.7167969 14.7382823,63.8720688 14.5195312,64.1826172 C14.3007802,64.4931656 14.1914062,64.8828102 14.1914062,65.3515625 C14.1914062,65.8164086 14.2978505,66.1982407 14.5107422,66.4970703 C14.7236339,66.7958999 15.0234356,66.9453125 15.4101562,66.9453125 Z M25.0253906,64.7363281 C25.0253906,65.1503927 24.921876,65.5175765 24.7148438,65.8378906 C24.5078115,66.1582047 24.2226581,66.4140615 23.859375,66.6054688 C24.2734396,66.8046885 24.6015613,67.0790998 24.84375,67.4287109 C25.0859387,67.7783221 25.2070312,68.1894508 25.2070312,68.6621094 C25.2070312,69.4199257 24.9492213,70.0185525 24.4335938,70.4580078 C23.9179662,70.8974631 23.2168013,71.1171875 22.3300781,71.1171875 C21.4433549,71.1171875 20.740237,70.8964866 20.2207031,70.4550781 C19.7011693,70.0136697 19.4414062,69.4160194 19.4414062,68.6621094 C19.4414062,68.1894508 19.5624988,67.7773455 19.8046875,67.4257812 C20.0468762,67.074217 20.3730448,66.8007822 20.7832031,66.6054688 C20.4199201,66.4140615 20.1357432,66.1582047 19.9306641,65.8378906 C19.7255849,65.5175765 19.6230469,65.1503927 19.6230469,64.7363281 C19.6230469,64.009762 19.865232,63.4306662 20.3496094,62.9990234 C20.8339868,62.5673807 21.4921833,62.3515625 22.3242188,62.3515625 C23.1523479,62.3515625 23.8095679,62.5654275 24.2958984,62.9931641 C24.782229,63.4209006 25.0253906,64.0019495 25.0253906,64.7363281 Z M23.5078125,68.5390625 C23.5078125,68.1679669 23.4003917,67.8710949 23.1855469,67.6484375 C22.9707021,67.4257801 22.6816424,67.3144531 22.3183594,67.3144531 C21.9589826,67.3144531 21.6718761,67.4248036 21.4570312,67.6455078 C21.2421864,67.866212 21.1347656,68.1640606 21.1347656,68.5390625 C21.1347656,68.9023456 21.2402333,69.1953114 21.4511719,69.4179688 C21.6621104,69.6406261 21.9550763,69.7519531 22.3300781,69.7519531 C22.6972675,69.7519531 22.9853505,69.6445323 23.1943359,69.4296875 C23.4033214,69.2148427 23.5078125,68.9179706 23.5078125,68.5390625 Z M23.3320312,64.8183594 C23.3320312,64.4863265 23.2441415,64.2197276 23.0683594,64.0185547 C22.8925772,63.8173818 22.6445329,63.7167969 22.3242188,63.7167969 C22.0078109,63.7167969 21.7617196,63.8144521 21.5859375,64.0097656 C21.4101554,64.2050791 21.3222656,64.4746077 21.3222656,64.8183594 C21.3222656,65.1582048 21.4101554,65.4316396 21.5859375,65.6386719 C21.7617196,65.8457042 22.009764,65.9492188 22.3300781,65.9492188 C22.6503922,65.9492188 22.8974601,65.8457042 23.0712891,65.6386719 C23.2451181,65.4316396 23.3320312,65.1582048 23.3320312,64.8183594 Z M26.3261719,64.109375 C26.3261719,63.5859349 26.4960921,63.1611344 26.8359375,62.8349609 C27.1757829,62.5087874 27.621091,62.3457031 28.171875,62.3457031 C28.7304715,62.3457031 29.1796858,62.5068343 29.5195312,62.8291016 C29.8593767,63.1513688 30.0292969,63.5878879 30.0292969,64.1386719 L30.0292969,64.5605469 C30.0292969,65.0878933 29.8593767,65.5117171 29.5195312,65.8320312 C29.1796858,66.1523454 28.7343778,66.3125 28.1835938,66.3125 C27.6289035,66.3125 27.1806658,66.1513688 26.8388672,65.8291016 C26.4970686,65.5068343 26.3261719,65.0722684 26.3261719,64.5253906 L26.3261719,64.109375 Z M27.4511719,64.5605469 C27.4511719,64.794923 27.518554,64.9833977 27.6533203,65.1259766 C27.7880866,65.2685554 27.9648427,65.3398438 28.1835938,65.3398438 C28.4023448,65.3398438 28.5761712,65.2675788 28.7050781,65.1230469 C28.833985,64.9785149 28.8984375,64.7851575 28.8984375,64.5429688 L28.8984375,64.109375 C28.8984375,63.8749988 28.833985,63.6855476 28.7050781,63.5410156 C28.5761712,63.3964837 28.3984386,63.3242188 28.171875,63.3242188 C27.9570302,63.3242188 27.7832038,63.3955071 27.6503906,63.5380859 C27.5175775,63.6806648 27.4511719,63.878905 27.4511719,64.1328125 L27.4511719,64.5605469 Z M30.4042969,68.9082031 C30.4042969,68.3808567 30.5761702,67.9560563 30.9199219,67.6337891 C31.2636736,67.3115218 31.7089816,67.1503906 32.2558594,67.1503906 C32.8105496,67.1503906 33.2587874,67.3095687 33.6005859,67.6279297 C33.9423845,67.9462907 34.1132812,68.3847628 34.1132812,68.9433594 L34.1132812,69.3652344 C34.1132812,69.8886745 33.9453142,70.3115218 33.609375,70.6337891 C33.2734358,70.9560563 32.8261747,71.1171875 32.2675781,71.1171875 C31.7050753,71.1171875 31.2539079,70.9550797 30.9140625,70.6308594 C30.5742171,70.306639 30.4042969,69.8769558 30.4042969,69.3417969 L30.4042969,68.9082031 Z M31.5292969,69.3652344 C31.5292969,69.5800792 31.5996087,69.7636711 31.7402344,69.9160156 C31.8808601,70.0683601 32.0566396,70.1445312 32.2675781,70.1445312 C32.744143,70.1445312 32.9824219,69.880862 32.9824219,69.3535156 L32.9824219,68.9082031 C32.9824219,68.673827 32.9160163,68.4853523 32.7832031,68.3427734 C32.65039,68.2001946 32.4746105,68.1289062 32.2558594,68.1289062 C32.0371083,68.1289062 31.8613288,68.2001946 31.7285156,68.3427734 C31.5957025,68.4853523 31.5292969,68.6796863 31.5292969,68.9257812 L31.5292969,69.3652344 Z M28.5175781,70.3613281 L27.6914062,69.9160156 L31.8574219,63.2480469 L32.6835938,63.6933594 L28.5175781,70.3613281 Z M45.0761719,68.1582031 C45.0097653,69.0761765 44.6709015,69.7988255 44.0595703,70.3261719 C43.4482391,70.8535183 42.6425831,71.1171875 41.6425781,71.1171875 C40.5488227,71.1171875 39.6884797,70.7490271 39.0615234,70.0126953 C38.4345672,69.2763635 38.1210938,68.2656314 38.1210938,66.9804688 L38.1210938,66.4589844 C38.1210938,65.6386678 38.2656236,64.9160188 38.5546875,64.2910156 C38.8437514,63.6660125 39.2568333,63.1865251 39.7939453,62.8525391 C40.3310574,62.518553 40.9550746,62.3515625 41.6660156,62.3515625 C42.6503955,62.3515625 43.4433564,62.6152317 44.0449219,63.1425781 C44.6464874,63.6699245 44.9941402,64.4101515 45.0878906,65.3632812 L43.3300781,65.3632812 C43.2871092,64.8124972 43.1337904,64.4130872 42.8701172,64.1650391 C42.606444,63.9169909 42.2050808,63.7929688 41.6660156,63.7929688 C41.0800752,63.7929688 40.641603,64.0029276 40.3505859,64.4228516 C40.0595689,64.8427755 39.9101563,65.4941362 39.9023438,66.3769531 L39.9023438,67.0214844 C39.9023438,67.943364 40.0419908,68.6171854 40.3212891,69.0429688 C40.6005873,69.4687521 41.0410126,69.6816406 41.6425781,69.6816406 C42.1855496,69.6816406 42.590819,69.5576184 42.8583984,69.3095703 C43.1259779,69.0615222 43.2792967,68.677737 43.3183594,68.1582031 L45.0761719,68.1582031 Z M45.8554688,67.7714844 C45.8554688,67.142575 45.9765613,66.5820337 46.21875,66.0898438 C46.4609387,65.5976538 46.809568,65.2167982 47.2646484,64.9472656 C47.7197288,64.677733 48.2480439,64.5429688 48.8496094,64.5429688 C49.7050824,64.5429688 50.4033176,64.8046849 50.9443359,65.328125 C51.4853543,65.8515651 51.7871091,66.5624955 51.8496094,67.4609375 L51.8613281,67.8945312 C51.8613281,68.8671924 51.5898465,69.647458 51.046875,70.2353516 C50.5039035,70.8232451 49.7753952,71.1171875 48.8613281,71.1171875 C47.9472611,71.1171875 47.2177762,70.8242217 46.6728516,70.2382812 C46.127927,69.6523408 45.8554688,68.8554738 45.8554688,67.8476562 L45.8554688,67.7714844 Z M47.5488281,67.8945312 C47.5488281,68.4960968 47.6621082,68.9560531 47.8886719,69.2744141 C48.1152355,69.592775 48.439451,69.7519531 48.8613281,69.7519531 C49.2714864,69.7519531 49.5917957,69.5947281 49.8222656,69.2802734 C50.0527355,68.9658187 50.1679688,68.4628941 50.1679688,67.7714844 C50.1679688,67.1816377 50.0527355,66.724611 49.8222656,66.4003906 C49.5917957,66.0761703 49.2675802,65.9140625 48.8496094,65.9140625 C48.4355448,65.9140625 48.1152355,66.0751937 47.8886719,66.3974609 C47.6621082,66.7197282 47.5488281,67.2187466 47.5488281,67.8945312 Z M54.4628906,64.6601562 L54.515625,65.3925781 C54.9687523,64.826169 55.5761681,64.5429688 56.3378906,64.5429688 C57.009769,64.5429688 57.509764,64.7402324 57.8378906,65.1347656 C58.1660173,65.5292988 58.3339843,66.1191367 58.3417969,66.9042969 L58.3417969,71 L56.6484375,71 L56.6484375,66.9453125 C56.6484375,66.5859357 56.5703133,66.3251961 56.4140625,66.1630859 C56.2578117,66.0009758 55.9980487,65.9199219 55.6347656,65.9199219 C55.1582007,65.9199219 54.8007824,66.1230448 54.5625,66.5292969 L54.5625,71 L52.8691406,71 L52.8691406,64.6601562 L54.4628906,64.6601562 Z M60.0351562,71 L60.0351562,65.9023438 L59.0917969,65.9023438 L59.0917969,64.6601562 L60.0351562,64.6601562 L60.0351562,64.3671875 C60.0429688,63.5703085 60.2880835,62.9560568 60.7705078,62.5244141 C61.2529321,62.0927713 61.9335894,61.8769531 62.8125,61.8769531 C63.3398464,61.8769531 63.980465,61.9921863 64.734375,62.2226562 L64.4882812,63.6230469 C64.1054668,63.5097651 63.8085948,63.4365236 63.5976562,63.4033203 C63.3867177,63.370117 63.1601575,63.3535156 62.9179688,63.3535156 C62.1289023,63.3535156 61.734375,63.7031215 61.734375,64.4023438 L61.734375,64.6601562 L62.9824219,64.6601562 L62.9824219,65.9023438 L61.734375,65.9023438 L61.734375,71 L60.0351562,71 Z M65.5253906,71 L63.8261719,71 L63.8261719,64.6601562 L65.5253906,64.6601562 L65.5253906,71 Z M66.6621094,67.7832031 C66.6621094,66.7949169 66.8837868,66.0078154 67.3271484,65.421875 C67.77051,64.8359346 68.3769493,64.5429688 69.1464844,64.5429688 C69.763675,64.5429688 70.2734355,64.7734352 70.6757812,65.234375 L70.6757812,62 L72.375,62 L72.375,71 L70.8457031,71 L70.7636719,70.3261719 C70.3417948,70.8535183 69.7988314,71.1171875 69.1347656,71.1171875 C68.3886681,71.1171875 67.7900413,70.8232451 67.3388672,70.2353516 C66.8876931,69.647458 66.6621094,68.8300834 66.6621094,67.7832031 Z M68.3554688,67.90625 C68.3554688,68.500003 68.4589833,68.9550765 68.6660156,69.2714844 C68.8730479,69.5878922 69.1738262,69.7460938 69.5683594,69.7460938 C70.0917995,69.7460938 70.4609364,69.5253928 70.6757812,69.0839844 L70.6757812,66.5820312 C70.4648427,66.1406228 70.099612,65.9199219 69.5800781,65.9199219 C68.7636678,65.9199219 68.3554688,66.5820246 68.3554688,67.90625 Z M76.6054688,71.1171875 C75.6757766,71.1171875 74.9189482,70.8320341 74.3349609,70.2617188 C73.7509736,69.6914034 73.4589844,68.9316454 73.4589844,67.9824219 L73.4589844,67.8183594 C73.4589844,67.1816374 73.58203,66.6123072 73.828125,66.1103516 C74.07422,65.6083959 74.4228493,65.221681 74.8740234,64.9501953 C75.3251976,64.6787096 75.8398409,64.5429688 76.4179688,64.5429688 C77.2851606,64.5429688 77.9677709,64.8164035 78.4658203,65.3632812 C78.9638697,65.910159 79.2128906,66.6855419 79.2128906,67.6894531 L79.2128906,68.3808594 L75.1757812,68.3808594 C75.230469,68.7949239 75.3955064,69.1269519 75.6708984,69.3769531 C75.9462904,69.6269544 76.2949198,69.7519531 76.7167969,69.7519531 C77.3691439,69.7519531 77.8789044,69.5156274 78.2460938,69.0429688 L79.078125,69.9746094 C78.8242175,70.3339862 78.4804709,70.6142568 78.046875,70.8154297 C77.6132791,71.0166026 77.1328151,71.1171875 76.6054688,71.1171875 Z M76.4121094,65.9140625 C76.0761702,65.9140625 75.803712,66.0273426 75.5947266,66.2539062 C75.3857411,66.4804699 75.2519534,66.8046854 75.1933594,67.2265625 L77.5488281,67.2265625 L77.5488281,67.0917969 C77.5410156,66.716795 77.4394541,66.4267588 77.2441406,66.2216797 C77.0488271,66.0166005 76.7714862,65.9140625 76.4121094,65.9140625 Z M81.7324219,64.6601562 L81.7851562,65.3925781 C82.2382835,64.826169 82.8456993,64.5429688 83.6074219,64.5429688 C84.2793002,64.5429688 84.7792952,64.7402324 85.1074219,65.1347656 C85.4355485,65.5292988 85.6035156,66.1191367 85.6113281,66.9042969 L85.6113281,71 L83.9179688,71 L83.9179688,66.9453125 C83.9179688,66.5859357 83.8398445,66.3251961 83.6835938,66.1630859 C83.527343,66.0009758 83.2675799,65.9199219 82.9042969,65.9199219 C82.427732,65.9199219 82.0703137,66.1230448 81.8320312,66.5292969 L81.8320312,71 L80.1386719,71 L80.1386719,64.6601562 L81.7324219,64.6601562 Z M89.53125,69.7519531 C89.8437516,69.7519531 90.0976553,69.6660165 90.2929688,69.4941406 C90.4882822,69.3222648 90.5898437,69.0937514 90.5976562,68.8085938 L92.1855469,68.8085938 C92.1816406,69.2382834 92.0644543,69.6318342 91.8339844,69.9892578 C91.6035145,70.3466815 91.2880879,70.6240225 90.8876953,70.8212891 C90.4873027,71.0185557 90.0449243,71.1171875 89.5605469,71.1171875 C88.6542923,71.1171875 87.9394557,70.8291044 87.4160156,70.2529297 C86.8925755,69.6767549 86.6308594,68.8808645 86.6308594,67.8652344 L86.6308594,67.7539062 C86.6308594,66.7773389 86.8906224,65.9980498 87.4101562,65.4160156 C87.9296901,64.8339815 88.6425736,64.5429688 89.5488281,64.5429688 C90.3418008,64.5429688 90.9775367,64.7685524 91.4560547,65.2197266 C91.9345727,65.6709007 92.1777343,66.2714806 92.1855469,67.0214844 L90.5976562,67.0214844 C90.5898437,66.6933577 90.4882822,66.4267588 90.2929688,66.2216797 C90.0976553,66.0166005 89.8398454,65.9140625 89.5195312,65.9140625 C89.124998,65.9140625 88.8271494,66.0576158 88.6259766,66.3447266 C88.4248037,66.6318374 88.3242188,67.097653 88.3242188,67.7421875 L88.3242188,67.9179688 C88.3242188,68.5703158 88.4238271,69.0390611 88.6230469,69.3242188 C88.8222666,69.6093764 89.124998,69.7519531 89.53125,69.7519531 Z M96.0703125,71.1171875 C95.1406204,71.1171875 94.383792,70.8320341 93.7998047,70.2617188 C93.2158174,69.6914034 92.9238281,68.9316454 92.9238281,67.9824219 L92.9238281,67.8183594 C92.9238281,67.1816374 93.0468738,66.6123072 93.2929688,66.1103516 C93.5390637,65.6083959 93.8876931,65.221681 94.3388672,64.9501953 C94.7900413,64.6787096 95.3046846,64.5429688 95.8828125,64.5429688 C96.7500043,64.5429688 97.4326147,64.8164035 97.9306641,65.3632812 C98.4287134,65.910159 98.6777344,66.6855419 98.6777344,67.6894531 L98.6777344,68.3808594 L94.640625,68.3808594 C94.6953128,68.7949239 94.8603502,69.1269519 95.1357422,69.3769531 C95.4111342,69.6269544 95.7597635,69.7519531 96.1816406,69.7519531 C96.8339876,69.7519531 97.3437482,69.5156274 97.7109375,69.0429688 L98.5429688,69.9746094 C98.2890612,70.3339862 97.9453147,70.6142568 97.5117188,70.8154297 C97.0781228,71.0166026 96.5976589,71.1171875 96.0703125,71.1171875 Z M95.8769531,65.9140625 C95.5410139,65.9140625 95.2685557,66.0273426 95.0595703,66.2539062 C94.8505849,66.4804699 94.7167972,66.8046854 94.6582031,67.2265625 L97.0136719,67.2265625 L97.0136719,67.0917969 C97.0058593,66.716795 96.9042979,66.4267588 96.7089844,66.2216797 C96.5136709,66.0166005 96.2363299,65.9140625 95.8769531,65.9140625 Z" id="Text-Copy" fill="#5BB45D"></path><g id="AI/Light" transform="translate(330.000000, 0.000000)"><ellipse id="Oval-" fill="#3E82F7" cx="16.7128571" cy="16.5413122" rx="16.5357143" ry="16.5413122"></ellipse><g id="robot" stroke-width="1" transform="translate(6.000000, 7.000000)"></g><g id="brain" stroke-width="1" transform="translate(6.000000, 7.000000)" fill="#FFFFFF" stroke="#3E82F7"><path d="M18.44,15.86 C15.48,17.2866667 14.6576769,17.6666667 15.9730308,17 L13.44,17 C12.55,16.85 11.71,16.47 11,15.9 C10.5,16.05 10,16.13 9.5,16.13 C8.62,16.13 7.74,15.86 7,15.34 C6.47,15.5 5.93,15.57 5.38,15.56 C4.59,15.57 3.81,15.41 3.08,15.11 C1.65,14.47 0.7,13.07 0.65,11.5 C0.57,10.78 0.69,10.05 1,9.39 C0.71,8.64 0.68,7.82 0.93,7.06 C1.3,6.11 2,5.32 2.87,4.82 C3.45,3.13 5.08,2 6.87,2.12 C8.47,0.62 10.92,0.46 12.7,1.75 C13.12,1.64 13.56,1.58 14,1.58 C15.36,1.55 16.65,2.15 17.5,3.22 C19.54,3.75 21,5.57 21.08,7.69 C21.13,8.8 20.83,9.89 20.22,10.82 C20.29,11.18 20.33,11.54 20.33,11.91 C20.42,13.46 19.71,14.95 18.44,15.86 Z M15.33,10.5 C15.9,10.57 16.35,11 16.35,11.57 C16.35,12.1222847 15.9022847,12.57 15.35,12.57 L14.72,12.57 C14.4,13.47 13.84,14.26 13.1,14.86 C13.35,14.95 13.61,15 13.87,15.07 C19,15 18.4,11.87 18.4,11.82 C18.34,10.39 17.14,9.27 15.71,9.33 C15.1577153,9.33 14.71,8.88228475 14.71,8.33 C14.71,7.77771525 15.1577153,7.33 15.71,7.33 C16.94,7.36 18.12,7.82 19.04,8.63 C19.09,8.34 19.12,8.04 19.12,7.74 C19.06,6.5 18.5,5.42 16.25,5.21 C15,2.25 11.85,3.89 11.85,4.81 C11.82,5.04 12.06,5.53 12.1,5.56 C12.6522847,5.56 13.1,6.00771525 13.1,6.56 C13.1,7.11 12.65,7.56 12.1,7.56 C11.57,7.54 11.07,7.34 10.67,7 C10.19,7.31 9.64,7.5 9.07,7.56 C8.5,7.61 8.03,7.21 8,6.66 C7.92,6.1 8.33,5.61 8.88,5.56 C9.04,5.54 9.82,5.42 9.82,4.79 C9.82,4.13 10.07,3.5 10.5,3 C9.58,2.75 8.59,3.08 7.59,4.29 C5.75,4 5,4.25 4.45,6.2 C3.5,6.67 3,7 2.78,8 C3.86,7.78 4.97,7.87 6,8.25 C6.5,8.44 6.78,9 6.59,9.54 C6.4,10.06 5.82,10.32 5.3,10.13 C4.57,9.81 3.75,9.79 3,10.07 C2.68,10.34 2.68,10.9 2.68,11.34 C2.68,12.08 3.05,12.77 3.68,13.17 C4.21,13.44 4.8,13.58 5.39,13.57 C5.24,13.31 5.11,13.04 5,12.76 C4.81,12.22 5.1,11.63 5.64,11.44 C6.18,11.25 6.77,11.54 6.96,12.08 C7.36,13.22 8.38,14 9.58,14.13 C10.95,14.06 12.17,13.25 12.77,12 C13,10.62 14.11,10.5 15.33,10.5 Z M17.33,17.97 L16.71,16.67 L16,16.83 L17,18.08 L17.33,17.97 Z M12.68,9.36 C12.7,8.83 12.3,8.38 11.77,8.33 C11.06,8.29 10.37,8.53 9.84,9 C9.27,9.58 8.97,10.38 9,11.19 C9,11.7422847 9.44771525,12.19 10,12.19 C10.57,12.19 11,11.74 11,11.19 C11,10.92 11.07,10.65 11.23,10.43 C11.35,10.33 11.5,10.28 11.66,10.28 C12.21,10.31 12.68,9.9 12.68,9.36 Z" id="Shape" fill-rule="nonzero"></path></g></g></g><g id="Message" transform="translate(39.685714, 263.700240)"><rect id="Rectangle" fill="#DCE1E7" x="48.9457143" y="33.7142608" width="158.742857" height="17.1876623" rx="8.59383116"></rect><rect id="Rectangle" fill="#DCE1E7" x="48.9457143" y="7.27170328" width="211.657143" height="17.1876623" rx="8.59383116"></rect><g id="Profile/Green" fill="#04D182"><ellipse id="Mask" cx="16.0238624" cy="16.1574394" rx="16.0238624" ry="16.1574394"></ellipse></g></g><g id="Message" transform="translate(191.388571, 103.924760)"><g id="Image" transform="translate(72.095714, 34.681604)"><rect id="Rectangle" fill="#DCE1E7" x="0" y="0" width="139.561429" height="106.712627" rx="13"></rect><g id="Icon" transform="translate(57.314656, 41.083153)"><rect id="Rectangle" fill="#F5F7FA" x="0" y="0" width="26.7468397" height="26.9608192" rx="4"></rect><g id="Group" transform="translate(2.865733, 14.443296)" fill="#DCE1E7"><polygon id="Triangle" points="5.25384351 2.8886592 10.507687 9.62886401 0 9.62886401"></polygon><polygon id="Triangle-Copy" points="14.1853775 0 21.0153741 9.62886401 7.35538091 9.62886401"></polygon></g></g></g><rect id="Rectangle" fill="#DCE1E7" x="0" y="8.00344703" width="211.657143" height="17.3408019" rx="8.67040096"></rect><g id="User/Light" transform="translate(227.000000, 0.000000)"><mask id="mask-2" fill="white"><use xlink:href="#path-1"></use></mask><use id="Mask" fill="#3E82F7" fill-rule="evenodd" xlink:href="#path-1"></use><g id="account" stroke-width="1" fill-rule="evenodd" mask="url(#mask-2)" fill="#FFFFFF"><g transform="translate(7.650000, 7.650000)" fill-rule="nonzero" id="Shape"><path d="M9.5625,0 C12.2031115,0 14.34375,2.14063854 14.34375,4.78125 C14.34375,7.42186146 12.2031115,9.5625 9.5625,9.5625 C6.92188854,9.5625 4.78125,7.42186146 4.78125,4.78125 C4.78125,2.14063854 6.92188854,0 9.5625,0 Z M9.5625,11.953125 C14.8457813,11.953125 19.125,14.0927344 19.125,16.734375 L19.125,19.125 L0,19.125 L0,16.734375 C0,14.0927344 4.27921875,11.953125 9.5625,11.953125 Z"></path></g></g></g></g><g id="Message" transform="translate(39.685714, 33.227644)"><rect id="Rectangle" fill="#DCE1E7" x="48.9457143" y="34.4059295" width="211.657143" height="17.2029648" rx="8.60148238"></rect><rect id="Rectangle" fill="#DCE1E7" x="48.9457143" y="7.93982988" width="158.742857" height="17.2029648" rx="8.60148238"></rect><g id="Profile/Green" fill="#04D182"><ellipse id="Mask" cx="16.0238624" cy="16.1574394" rx="16.0238624" ry="16.1574394"></ellipse></g></g></g><g id="Message-Bar" transform="translate(175.000000, 519.000000)"><rect id="Line" stroke="#E3E3E3" fill="#E3E3E3" stroke-linejoin="round" x="0" y="6.10622664e-15" width="506" height="1"></rect><rect id="Search" fill="#DCE1E7" x="19.8428571" y="15.3200692" width="168.664286" height="15.9861592" rx="7.99307958"></rect><path d="M437.205279,17.7775762 L436.97865,28.2015774 C436.935098,30.2047985 435.323002,31.8630021 433.376201,31.9070603 C431.4294,31.9511185 429.887854,30.3642851 429.931406,28.361064 L430.177741,17.030628 C430.204936,15.7797478 431.213622,14.7422126 432.429271,14.7147011 C433.644922,14.6871897 434.609464,15.6800687 434.582269,16.9309488 L434.375347,26.4485151 C434.364508,26.9470543 433.959233,27.3639211 433.474735,27.3748858 C432.990237,27.3858505 432.602698,26.986926 432.613536,26.4883868 L432.800751,17.8772553 L431.479392,17.9071591 L431.292178,26.5182905 C431.264982,27.7691707 432.229525,28.7620496 433.445175,28.7345382 C434.660824,28.7070267 435.66951,27.6694915 435.696706,26.4186114 L435.903627,16.9010451 C435.947179,14.897824 434.405633,13.3109906 432.458832,13.3550488 C430.51203,13.399107 428.899934,15.0573106 428.856382,17.0605317 L428.610047,28.3909678 C428.550139,31.1465298 430.668687,33.3273175 433.346641,33.2667126 C436.024594,33.2061076 438.2401,30.9272357 438.300009,28.1716736 L438.526637,17.7476724 L437.205279,17.7775762 Z" id="Mask" stroke="#DCE1E7" fill="#DCE1E7" transform="translate(433.567722, 23.311049) rotate(45.000000) translate(-433.567722, -23.311049) "></path><path d="M403.461507,13.3217993 C397.984879,13.3217993 393.55,17.7979239 393.55,23.3131488 C393.55,28.8283737 397.984879,33.3044983 403.461507,33.3044983 C408.948057,33.3044983 413.392857,28.8283737 413.392857,23.3131488 C413.392857,17.7979239 408.948057,13.3217993 403.461507,13.3217993 Z M403.471429,31.3062284 C399.086157,31.3062284 395.534286,27.7293253 395.534286,23.3131488 C395.534286,18.8969723 399.086157,15.3200692 403.471429,15.3200692 C407.8567,15.3200692 411.408571,18.8969723 411.408571,23.3131488 C411.408571,27.7293253 407.8567,31.3062284 403.471429,31.3062284 Z M406.943929,22.3140138 C407.767407,22.3140138 408.432143,21.6445934 408.432143,20.8153114 C408.432143,19.9860294 407.767407,19.316609 406.943929,19.316609 C406.12045,19.316609 405.455714,19.9860294 405.455714,20.8153114 C405.455714,21.6445934 406.12045,22.3140138 406.943929,22.3140138 Z M399.998929,22.3140138 C400.822407,22.3140138 401.487143,21.6445934 401.487143,20.8153114 C401.487143,19.9860294 400.822407,19.316609 399.998929,19.316609 C399.17545,19.316609 398.510714,19.9860294 398.510714,20.8153114 C398.510714,21.6445934 399.17545,22.3140138 399.998929,22.3140138 Z M403.471429,28.808391 C405.783121,28.808391 407.747564,27.349654 408.541279,25.3114187 L398.401579,25.3114187 C399.195293,27.349654 401.159736,28.808391 403.471429,28.808391 Z" id="Mask" stroke="#DCE1E7" fill="#DCE1E7" fill-rule="nonzero"></path></g><g id="Contacts"><rect id="Line" stroke="#E3E3E3" fill="#E3E3E3" stroke-linejoin="round" x="174.339623" y="0" width="1" height="566"></rect><g id="List" transform="translate(0.000000, 88.228235)"><g id="Contact-Row" transform="translate(0.000000, 270.771765)"><g id="Contact"><rect id="Rectangle" fill="#DCE1E7" x="46.2264151" y="19.9764706" width="72.6415094" height="13.3176471" rx="6.65882353"></rect><rect id="Rectangle" fill="#DCE1E7" x="46.2264151" y="0" width="104.339623" height="13.3176471" rx="6.65882353"></rect><g id="Profile"><g id="Profile/Gray" fill="#DCE1E7"><ellipse id="Mask" cx="16.509434" cy="16.6470588" rx="16.509434" ry="16.6470588"></ellipse></g><circle id="Mask" fill="#FFFFFF" cx="29.5" cy="24.5" r="9.5"></circle><g id="Channel/Twitter" transform="translate(21.000000, 16.000000)"><g id="Twitter"><circle id="Oval" fill="#1DA1F2" cx="9" cy="9" r="9"></circle><g id="Twitter_Logo_Blue" transform="translate(3.603516, 4.781250)" fill="#FFFFFF"><path d="M3.39638414,8.77618835 C7.4718723,8.77618835 9.70099239,5.39967621 9.70099239,2.47158011 C9.70099239,2.37567609 9.70099239,2.28020409 9.69451239,2.18516409 C10.1281676,1.87149356 10.502506,1.48311196 10.8000004,1.03820404 C10.3955962,1.21739841 9.96659865,1.33491403 9.52732839,1.38682805 C9.9898898,1.10990829 10.3360858,0.674361524 10.5014884,0.161244006 C10.0665324,0.419344713 9.59067949,0.601241217 9.09446437,0.699084028 C8.40762009,-0.0312576727 7.31623104,-0.210011372 6.43228553,0.263057739 C5.54834004,0.73612685 5.091671,1.74336878 5.31835221,2.71998011 C3.53673911,2.63066391 1.87681361,1.78915973 0.75168003,0.404892016 C0.163565037,1.41734658 0.463962785,2.71257541 1.43769606,3.36279614 C1.08507224,3.352345 0.740136718,3.25722103 0.432000018,3.08545212 C0.432000018,3.09452412 0.432000018,3.10402812 0.432000018,3.11353212 C0.43228865,4.16830032 1.17579669,5.0767714 2.20968009,5.28562821 C1.88346373,5.37459432 1.54119487,5.38759935 1.20916805,5.32364421 C1.49944957,6.22627492 2.33132031,6.84462291 3.27931212,6.86242828 C2.49468564,7.47907889 1.52541777,7.81383389 0.527472021,7.81282832 C0.351174356,7.81248987 0.175048163,7.80181555 0,7.78086032 C1.01331477,8.43113981 2.19236268,8.77606606 3.39638414,8.77446035" id="Shape"></path></g></g></g></g></g></g><g id="Contact-Row" transform="translate(0.000000, 216.771765)"><g id="Contact"><rect id="Rectangle" fill="#DCE1E7" x="46.2264151" y="19.9764706" width="72.6415094" height="13.3176471" rx="6.65882353"></rect><rect id="Rectangle" fill="#DCE1E7" x="46.2264151" y="0" width="104.339623" height="13.3176471" rx="6.65882353"></rect><g id="Profile"><g id="Profile/Gray" fill="#DCE1E7"><ellipse id="Mask" cx="16.509434" cy="16.6470588" rx="16.509434" ry="16.6470588"></ellipse></g><circle id="Mask" fill="#FFFFFF" cx="29.5" cy="24.5" r="9.5"></circle><g id="Channel/WeChat" transform="translate(21.000000, 16.000000)"><g id="WeChat"><circle id="Oval" fill="#1AAD19" cx="9" cy="9" r="9"></circle><g id="Group" transform="translate(2.707031, 3.919922)" fill="#FFFFFF" fill-rule="nonzero"><path d="M12.5999998,6.64915651 C12.5999998,4.9038201 10.9007104,3.49156621 8.80481913,3.49156621 C6.70881948,3.49156621 5.00963846,4.9038201 5.00963846,6.64915651 C5.00963846,8.38820816 6.70881948,9.80046206 8.80481913,9.80674682 C9.2378205,9.80046206 9.65598045,9.73876375 10.0496384,9.62457815 C10.0787986,9.61677181 10.0764122,9.61712121 10.1527902,9.60213691 C10.2291682,9.58715263 10.2956098,9.62457815 10.3532528,9.6549396 L11.1730119,10.1407227 C11.2107554,10.1609272 11.2330718,10.1710842 11.2640962,10.1710842 C11.3305702,10.1710842 11.387011,10.1145724 11.385542,10.0496384 C11.387011,10.0137589 11.3755481,9.98524076 11.3666532,9.95517953 C11.3577582,9.92511828 11.2560361,9.5547269 11.2033733,9.3209637 C11.1959164,9.28786335 11.1918395,9.26880961 11.1918395,9.20614465 C11.1918395,9.14347971 11.2242969,9.07618219 11.2944576,9.01734924 C12.0886747,8.45206754 12.5999998,7.5963951 12.5999998,6.64915651 Z M7.51491772,6.1026505 C7.26142291,6.1026505 7.04385531,5.88521016 7.04385531,5.60214668 C7.04385531,5.34862856 7.26142291,5.13108425 7.51491772,5.13108425 C7.79806194,5.13108425 8.01542155,5.34862856 8.01542155,5.60214668 C8.01542155,5.88521016 7.79806194,6.1026505 7.51491772,6.1026505 Z M10.0349177,6.1026505 C9.78142287,6.1026505 9.56385526,5.88521016 9.56385526,5.60214668 C9.56385526,5.34862856 9.78142287,5.13108425 10.0349177,5.13108425 C10.3180619,5.13108425 10.5354215,5.34862856 10.5354215,5.60214668 C10.5354215,5.88521016 10.3180619,6.1026505 10.0349177,6.1026505 Z" id="Bubble-2"></path><path d="M0,3.79518066 C0,4.92610061 0.613171044,5.95270471 1.57879515,6.64915651 C1.6499206,6.70150658 1.68797941,6.76138983 1.68795107,6.86192382 C1.68797941,6.89667121 1.68187888,6.93402638 1.66987949,6.98313241 C1.58915778,7.3134762 1.50048249,7.6915266 1.48771082,7.74216854 C1.47493915,7.79281049 1.45480596,7.82654627 1.45734937,7.86361433 C1.45480596,7.9476728 1.52258719,8.01542155 1.6091566,8.01542155 C1.63941776,8.01542155 1.66637866,8.00310359 1.70024093,7.9850601 L2.70216863,7.40819264 C2.76560388,7.36980956 2.8368086,7.35002705 2.884871,7.35002705 C2.93293339,7.35002705 3.01315106,7.36494834 3.06650598,7.37783119 C3.53101199,7.4965548 4.03254974,7.57078668 4.55421679,7.55999988 C4.6358676,7.57078668 4.7191324,7.56862564 4.79710835,7.55999988 C4.70310745,7.26953709 4.64907737,6.95856282 4.64530113,6.64915651 C4.64907737,4.73052609 6.50764721,3.18473105 8.80481913,3.18795175 C8.88356319,3.18473105 8.96574521,3.18732432 9.04771069,3.18795175 C8.70490661,1.38296033 6.82284073,0 4.55421679,0 C2.03798435,0 0,1.69490708 0,3.79518066 Z M3.00578309,3.18795175 C2.67037172,3.18795175 2.39855418,2.91615845 2.39855418,2.58072284 C2.39855418,2.24539557 2.67037172,1.97349395 3.00578309,1.97349395 C3.34119445,1.97349395 3.61301198,2.24539557 3.61301198,2.58072284 C3.61301198,2.91615845 3.34119445,3.18795175 3.00578309,3.18795175 Z M6.0419276,3.18795175 C5.70649199,3.18795175 5.43469871,2.91615845 5.43469871,2.58072284 C5.43469871,2.24539557 5.70649199,1.97349395 6.0419276,1.97349395 C6.37725489,1.97349395 6.64915651,2.24539557 6.64915651,2.58072284 C6.64915651,2.91615845 6.37725489,3.18795175 6.0419276,3.18795175 Z" id="Bubble-1"></path></g></g></g></g></g></g><g id="Contact-Row" transform="translate(0.000000, 162.771765)"><g id="Contact"><rect id="Rectangle" fill="#DCE1E7" x="46.2264151" y="19.9764706" width="72.6415094" height="13.3176471" rx="6.65882353"></rect><rect id="Rectangle" fill="#DCE1E7" x="46.2264151" y="0" width="104.339623" height="13.3176471" rx="6.65882353"></rect><g id="Profile"><g id="Profile/Gray" fill="#DCE1E7"><ellipse id="Mask" cx="16.509434" cy="16.6470588" rx="16.509434" ry="16.6470588"></ellipse></g><circle id="Mask" fill="#FFFFFF" cx="29.5" cy="24.5" r="9.5"></circle><g id="Channel/Telegram" transform="translate(21.000000, 16.000000)"><g id="Telegram"><circle id="Oval" fill="#27A5E7" cx="9" cy="9" r="9"></circle><g id="Group" transform="translate(3.656250, 5.396484)" fill="#FFFFFF"><path d="M3.69374999,7.72851563 C3.40218,7.72851563 3.451725,7.61842313 3.35116499,7.34080312 L2.49375001,4.51895813 L9.09374999,0.603515624" id="Shape"></path><path d="M3.69374999,7.72851563 C3.91874999,7.72851563 4.0181625,7.62561563 4.14374999,7.50351563 L5.34375,6.33666563 L3.84690001,5.43404062" id="Shape"></path><path d="M3.84674999,5.43426562 L7.47374999,8.11394063 C7.88763749,8.34230813 8.186355,8.22407063 8.28945,7.72967813 L9.76582499,0.772453125 C9.91697999,0.166438125 9.53481749,-0.108421875 9.13887,0.0713381251 L0.46962,3.41416313 C-0.1221375,3.65151563 -0.1186875,3.98165813 0.361755,4.12876313 L2.58647999,4.82313563 L7.73695499,1.57376062 C7.9800975,1.42631812 8.2032525,1.50558638 8.02009499,1.66814063" id="Shape"></path></g></g></g></g></g></g><g id="Contact-Row" transform="translate(0.000000, 108.771765)"><g id="Contact"><rect id="Rectangle" fill="#DCE1E7" x="46.2264151" y="19.9764706" width="72.6415094" height="13.3176471" rx="6.65882353"></rect><rect id="Rectangle" fill="#DCE1E7" x="46.2264151" y="0" width="104.339623" height="13.3176471" rx="6.65882353"></rect><g id="Profile"><g id="Profile/Gray" fill="#DCE1E7"><ellipse id="Mask" cx="16.509434" cy="16.6470588" rx="16.509434" ry="16.6470588"></ellipse></g><circle id="Mask" fill="#FFFFFF" cx="29.5" cy="24.5" r="9.5"></circle><g id="Channel/Viber" transform="translate(21.000000, 16.000000)"><g id="Viber"><circle id="Oval" fill="#665CAC" cx="9" cy="9" r="9"></circle><g id="purple_Purple_icon" transform="translate(3.884766, 3.955078)"><path d="M9.08295008,1.0537268 C8.81404161,0.807497365 7.73030814,0.0202111636 5.31661177,0.0088716504 C5.31661177,0.0088716504 2.46877402,-0.162840978 1.08049361,1.11042436 C0.307786787,1.88313119 0.03563847,3.01384266 0.00809965229,4.41670243 C-0.021059096,5.81956221 -0.0583174965,8.44546948 2.47525374,9.15823888 C2.47525374,9.15823888 2.47687367,9.15823888 2.47687367,9.15823888 L2.47525374,10.2452122 C2.47525374,10.2452122 2.45905444,10.6858333 2.74902198,10.7749295 C3.09892697,10.8834648 3.30465813,10.5497591 3.63998373,10.1885147 C3.82303587,9.99088312 4.07736496,9.69929566 4.26851675,9.47736519 C6.00022241,9.62315891 7.33342518,9.28945324 7.48407872,9.24085533 C7.8339837,9.1274602 9.81353872,8.87313111 10.1342849,6.24722384 C10.4663707,3.54032005 9.9722919,1.82643363 9.08295008,1.0537268 Z M9.3761575,6.05283219 C9.10400917,8.24621803 7.49865809,8.38553205 7.20383075,8.47948802 C7.07747618,8.51998628 5.90788638,8.81157377 4.43698952,8.71437793 C4.43698952,8.71437793 3.3402966,10.0362412 2.99849128,10.3812864 C2.94503358,10.4347441 2.88185629,10.4574231 2.8397381,10.4460836 C2.78142059,10.4315042 2.76522129,10.3618472 2.76522129,10.2597916 C2.76684122,10.1139979 2.77494087,8.45356913 2.77494087,8.45356913 C2.77332094,8.45356913 2.77332094,8.45356913 2.77494087,8.45356913 C0.633392808,7.85905465 0.758127454,5.62193068 0.782426412,4.45072097 C0.806725368,3.27951125 1.02703591,2.32051242 1.67986789,1.67578009 C2.85431746,0.613105712 5.27287365,0.771858896 5.27287365,0.771858896 C7.31560595,0.781578478 8.29404394,1.39553212 8.52083422,1.60126329 C9.27248194,2.24761554 9.65640546,3.79140928 9.3761575,6.05283219 Z" id="Shape" fill="#FFFFFF" fill-rule="nonzero"></path><path d="M6.30962914,4.356765 C6.28371025,3.82056801 6.01156194,3.54032005 5.49318419,3.51278123" id="Shape" stroke="#FFFFFF" stroke-width="0.27" stroke-linecap="round" stroke-linejoin="round"></path><path d="M7.0094391,4.59165491 C7.02077861,4.09271634 6.87336493,3.67639421 6.56557815,3.34106859 C6.25779135,3.00574299 5.83174965,2.81945099 5.28421315,2.78057266" id="Shape" stroke="#FFFFFF" stroke-width="0.27" stroke-linecap="round" stroke-linejoin="round"></path><path d="M7.72706828,4.87190289 C7.72058856,4.00524008 7.46139969,3.3248693 6.95112159,2.82593072 C6.4408435,2.32861206 5.80421083,2.07590291 5.04446344,2.07104312" id="Shape" stroke="#FFFFFF" stroke-width="0.27" stroke-linecap="round" stroke-linejoin="round"></path><path d="M5.52072299,6.18566648 C5.52072299,6.18566648 5.71349473,6.20186579 5.81555034,6.07389128 L6.01642172,5.82118214 C6.11361754,5.69482755 6.34850747,5.61545096 6.57853759,5.74342546 C6.70651209,5.81632233 6.93654223,5.95725629 7.07909611,6.06255177 C7.23136957,6.17432697 7.54401614,6.43513577 7.54401614,6.43513577 C7.69304974,6.55987043 7.72706828,6.7445425 7.62663259,6.93893415 C7.62663259,6.94055408 7.62501266,6.94217401 7.62501266,6.94217401 C7.52133713,7.12522615 7.3820231,7.29855872 7.20545068,7.45893183 C7.20383075,7.46055176 7.20383075,7.46055176 7.20221082,7.46217169 C7.05803701,7.58204654 6.91548312,7.65170355 6.7761691,7.66790286 C6.7599698,7.67114272 6.7389107,7.67276265 6.71461175,7.67114272 C6.65305439,7.67114272 6.59311696,7.66304306 6.53317954,7.6436039 L6.52831975,7.63712418 C6.312869,7.57718675 5.95486436,7.42491329 5.35711003,7.0960674 C4.96832671,6.88223658 4.64596056,6.66354596 4.37381223,6.4464753 C4.22963842,6.33308015 4.08222475,6.20348572 3.93157121,6.05445212 C3.92671143,6.04959233 3.92185164,6.04473254 3.91699185,6.03987275 C3.91213206,6.03501295 3.90727227,6.03015316 3.90241248,6.02529337 C3.90241248,6.02529337 3.90241248,6.02529337 3.90241248,6.02529337 C3.89755267,6.02043358 3.89269288,6.01557379 3.8878331,6.010714 C3.88297331,6.00585421 3.87811352,6.00099441 3.87325373,5.99613462 C3.72422013,5.84548109 3.59462568,5.69806741 3.48123055,5.5538936 C3.26415987,5.28174529 3.04546925,4.9577592 2.83163845,4.57059582 C2.50279256,3.97284149 2.3505191,3.61483685 2.29058167,3.3993861 L2.28410195,3.39452631 C2.26466278,3.33458888 2.2549432,3.27465146 2.25656313,3.2130941 C2.2549432,3.18879513 2.25656313,3.16773605 2.25980299,3.15153673 C2.2760023,3.01222273 2.34565929,2.86966884 2.46553416,2.72549503 C2.46715409,2.7238751 2.46715409,2.7238751 2.46877402,2.72225517 C2.62914713,2.54568275 2.80085977,2.40636872 2.98553184,2.30269317 C2.98715177,2.30269317 2.9887717,2.30107324 2.9887717,2.30107324 C3.18316335,2.20063757 3.36783542,2.23465611 3.49257008,2.38368971 C3.49419001,2.38530964 3.75337888,2.69633628 3.86515408,2.84860974 C3.97044954,2.99278355 4.11300343,3.22119374 4.18428037,3.34916826 C4.31225488,3.57919838 4.23287829,3.81408829 4.10652371,3.91128413 L3.85381455,4.11215549 C3.72584006,4.21583105 3.74203935,4.40698284 3.74203935,4.40698284 C3.74203935,4.40698284 4.11786322,5.82766186 5.52072299,6.18566648 Z" id="Shape" fill="#FFFFFF"></path></g></g></g></g></g></g><g id="Contact-Row" transform="translate(0.000000, 54.771765)"><g id="Contact"><rect id="Rectangle" fill="#DCE1E7" x="46.2264151" y="19.9764706" width="72.6415094" height="13.3176471" rx="6.65882353"></rect><rect id="Rectangle" fill="#DCE1E7" x="46.2264151" y="0" width="104.339623" height="13.3176471" rx="6.65882353"></rect><g id="Profile"><g id="Profile/Gray" fill="#DCE1E7"><ellipse id="Mask" cx="16.509434" cy="16.6470588" rx="16.509434" ry="16.6470588"></ellipse></g><circle id="Mask" fill="#FFFFFF" cx="29.5" cy="24.5" r="9.5"></circle><g id="Channel/WhatsApp" transform="translate(21.000000, 16.000000)"><g id="WhatsApp"><circle id="Oval" fill="#25D366" cx="9" cy="9" r="9"></circle><g id="Group" transform="translate(4.042969, 4.025391)"><path d="M0.0469973308,4.92423718 C0.0466992543,5.79176729 0.273379271,6.63874434 0.70427002,7.38521285 L0.00563567963,9.9358953 L2.61607537,9.25144089 C3.33533377,9.64366687 4.14506544,9.85037578 4.96917575,9.85071642 L4.9712789,9.85071642 C7.68505175,9.85071642 9.89436574,7.64211213 9.89550127,4.9280554 C9.89595548,3.6126158 9.38414408,2.37581158 8.45451471,1.44538735 C7.52474341,0.514963107 6.28849276,0.00227167437 4.9712789,0.00170390977 C2.25693828,0.00170390977 0.0480501083,2.20988238 0.046914579,4.92408105 L0.0469973308,4.92423718 Z M1.60145405,7.25659996 L1.50401004,7.10182733 C1.09425432,6.45037423 0.877992787,5.6974616 0.878290863,4.92445009 C0.879185094,2.6685794 2.71515129,0.83313839 4.97272528,0.83313839 C6.06598441,0.833564213 7.093468,1.2597709 7.86633755,2.0330521 C8.63912196,2.80639007 9.06434926,3.83442724 9.06405117,4.92765797 C9.06304978,7.18367061 7.22704881,9.01925357 4.97117812,9.01925357 L4.96957574,9.01925357 C4.23504448,9.01882774 3.51467896,8.82165728 2.88644743,8.44886304 L2.73692661,8.36023215 L1.18778091,8.76638255 L1.60145405,7.25659996 Z" id="Shape" fill="url(#linearGradient-3)" fill-rule="nonzero"></path><path d="M3.74058993,2.86609052 C3.64840483,2.66118427 3.55141078,2.65708216 3.46373372,2.65347686 C3.39197822,2.65042513 3.30991211,2.65062384 3.22794109,2.65062384 C3.14587071,2.65062384 3.01257378,2.68141939 2.89985831,2.80454483 C2.78704206,2.92767594 2.46918048,3.22531518 2.46918048,3.8306516 C2.46918048,4.43604479 2.91013485,5.02099847 2.97156698,5.10316821 C3.03310698,5.1851889 3.82277385,6.46718006 5.07328959,6.9603262 C6.11266785,7.37018128 6.32417437,7.28866447 6.54976143,7.26812559 C6.7753485,7.24764491 7.277735,6.97058856 7.38023071,6.68327128 C7.48278178,6.39599658 7.48278178,6.14974287 7.45203589,6.09831761 C7.42129003,6.04704136 7.33921965,6.0162458 7.21618648,5.95475833 C7.09310505,5.89321832 6.4882129,5.59553367 6.37545486,5.55447009 C6.26263861,5.51345903 6.18061224,5.49297835 6.09854187,5.61616054 C6.01652118,5.73919088 5.78087757,6.01625007 5.70906954,6.09832044 C5.63731404,6.18054128 5.56551026,6.19080646 5.44247568,6.12926503 C5.31939426,6.06752488 4.92311301,5.93772964 4.45301812,5.51862002 C4.08723578,5.19249602 3.84031494,4.78975221 3.76850693,4.66656149 C3.69675141,4.54353115 3.76084637,4.47688552 3.82253681,4.41553855 C3.87781864,4.36040719 3.94561825,4.27187992 4.00715967,4.20007189 C4.06854923,4.12821703 4.08902991,4.07694078 4.13004097,3.99486756 C4.1711017,3.9127461 4.15057133,3.84088982 4.11982546,3.77934412 C4.08902991,3.71780413 3.84992436,3.1093535 3.74051612,2.86605218" id="Shape" fill="#FFFFFF"></path></g></g></g></g></g></g><g id="Contact-Row" transform="translate(0.000000, 0.771765)"><g id="Contact"><rect id="Rectangle" fill="#DCE1E7" x="46.2264151" y="19.9764706" width="72.6415094" height="13.3176471" rx="6.65882353"></rect><rect id="Rectangle" fill="#DCE1E7" x="46.2264151" y="0" width="104.339623" height="13.3176471" rx="6.65882353"></rect><g id="Profile"><g id="Profile/Green" fill="#04D182"><ellipse id="Mask" cx="16.509434" cy="16.6470588" rx="16.509434" ry="16.6470588"></ellipse></g><circle id="Mask" fill="#FFFFFF" cx="29.5" cy="24.5" r="9.5"></circle><g id="Channel/Facebook-Messenger" transform="translate(21.000000, 16.000000)"><g id="Facebook-Messenger"><circle id="Oval" fill="#0084FF" cx="9" cy="9" r="9"></circle><path d="M9.00351584,3.60351562 C5.9612622,3.60351562 3.60351562,5.83199467 3.60351562,8.84169088 C3.60351562,10.4160771 4.248908,11.7764163 5.29957202,12.7162673 C5.38758009,12.7955842 5.44081952,12.9053241 5.4451656,13.0237561 L5.47450161,13.9842512 C5.48428029,14.2906535 5.80045736,14.4894891 6.0807793,14.3667108 L7.1520872,13.894069 C7.24335481,13.8538673 7.34440108,13.8462616 7.44001478,13.8723383 C7.93220796,14.008155 8.45699671,14.0798662 9.00351584,14.0798662 C12.0457695,14.0798662 14.403516,11.8513871 14.403516,8.84169088 C14.403516,5.83199467 12.0457695,3.60351562 9.00351584,3.60351562 Z M12.245689,7.63346626 L10.659371,10.1498765 C10.4072986,10.5497207 9.86621205,10.6496817 9.48810338,10.3660966 L8.22665464,9.41972641 C8.11039709,9.33280378 7.95176529,9.3338903 7.83659426,9.42081293 L6.13293223,10.7137871 C5.90584973,10.8865459 5.60814347,10.6138261 5.76134267,10.3726158 L7.34766064,7.85620552 C7.59973308,7.4563614 8.14081962,7.35640037 8.51892829,7.63998546 L9.78037704,8.58635564 C9.89663458,8.67327827 10.0552664,8.67219175 10.1704374,8.58526912 L11.8740995,7.29229493 C12.101182,7.11953619 12.3988882,7.39225596 12.245689,7.63346626 Z" id="Shape" fill="#FFFFFF" fill-rule="nonzero"></path></g></g></g></g></g></g><g id="Filters" transform="translate(0.000000, 49.275294)" fill="#F5F7FA"><rect id="Rectangle" x="110.943396" y="0" width="39.6226415" height="13.3176471" rx="6.65882353"></rect><rect id="Rectangle" x="58.1132075" y="0" width="39.6226415" height="13.3176471" rx="6.65882353"></rect><rect id="Rectangle" x="0" y="0" width="44.9056604" height="13.3176471" rx="6.65882353"></rect></g><rect id="Search" fill="#F5F7FA" x="0" y="15.9811765" width="150.566038" height="19.9764706" rx="9.98823529"></rect></g></g><g id="Left-Bar"><polygon id="Path" fill="#3F4F56" points="0 0 70 0 70 572 0 572"></polygon><g id="settings" transform="translate(25.000000, 502.000000)" fill="#FFFFFF" fill-rule="nonzero"><path d="M10,13.5 C8.06700338,13.5 6.5,11.9329966 6.5,10 C6.5,8.06700338 8.06700338,6.5 10,6.5 C11.9329966,6.5 13.5,8.06700338 13.5,10 C13.5,11.9329966 11.9329966,13.5 10,13.5 Z M17.43,10.97 C17.47,10.65 17.5,10.33 17.5,10 C17.5,9.67 17.47,9.34 17.43,9 L19.54,7.37 C19.73,7.22 19.78,6.95 19.66,6.73 L17.66,3.27 C17.54,3.05 17.27,2.96 17.05,3.05 L14.56,4.05 C14.04,3.66 13.5,3.32 12.87,3.07 L12.5,0.42 C12.46,0.18 12.25,0 12,0 L8,0 C7.75,0 7.54,0.18 7.5,0.42 L7.13,3.07 C6.5,3.32 5.96,3.66 5.44,4.05 L2.95,3.05 C2.73,2.96 2.46,3.05 2.34,3.27 L0.34,6.73 C0.21,6.95 0.27,7.22 0.46,7.37 L2.57,9 C2.53,9.34 2.5,9.67 2.5,10 C2.5,10.33 2.53,10.65 2.57,10.97 L0.46,12.63 C0.27,12.78 0.21,13.05 0.34,13.27 L2.34,16.73 C2.46,16.95 2.73,17.03 2.95,16.95 L5.44,15.94 C5.96,16.34 6.5,16.68 7.13,16.93 L7.5,19.58 C7.54,19.82 7.75,20 8,20 L12,20 C12.25,20 12.46,19.82 12.5,19.58 L12.87,16.93 C13.5,16.67 14.04,16.34 14.56,15.94 L17.05,16.95 C17.27,17.03 17.54,16.95 17.66,16.73 L19.66,13.27 C19.78,13.05 19.73,12.78 19.54,12.63 L17.43,10.97 Z" id="Shape"></path></g><g id="file" transform="translate(27.000000, 443.000000)" fill="#FFFFFF" fill-rule="nonzero"><path d="M2,0 C0.8954305,0 0,0.8954305 0,2 L0,18 C0,19.1045695 0.8954305,20 2,20 L14,20 C15.1045695,20 16,19.1045695 16,18 L16,6 L10,0 L2,0 Z M2,2 L9,2 L9,7 L14,7 L14,18 L2,18 L2,2 Z M4,10 L4,12 L12,12 L12,10 L4,10 Z M4,14 L4,16 L9,16 L9,14 L4,14 Z" id="Shape"></path></g><g id="survey" transform="translate(25.000000, 389.000000)" fill="#FFFFFF" fill-rule="nonzero"><path d="M2,0 L8,0 L8,6 L2,6 L2,0 Z M4,2 L4,4 L6,4 L6,2 L4,2 Z M10,2 L20,2 L20,4 L10,4 L10,2 Z M10,10 L20,10 L20,12 L10,12 L10,10 Z M4,15 L0.5,11.5 L1.91,10.09 L4,12.17 L8.59,7.59 L10,9 L4,15 Z" id="Shape"></path></g><g id="pipeline" transform="translate(23.000000, 326.000000)"><polygon id="Path" points="0 0 24 0 24 24 0 24"></polygon><path d="M10.5882353,7.23529412 L2.11764706,7.23529412 C0.948102883,7.23529412 0,8.183397 0,9.35294118 L0,13.5882353 C0,14.7577795 0.948102883,15.7058824 2.11764706,15.7058824 L3.17647059,15.7058824 L3.17647059,19.9411765 C3.17647059,20.5259486 3.65052203,21 4.23529412,21 L6.35294118,21 C6.93771326,21 7.41176471,20.5259486 7.41176471,19.9411765 L7.41176471,15.7058824 L10.5882353,15.7058824 L15.8823529,19.9411765 L15.8823529,3 L10.5882353,7.23529412 Z M20.6470588,11.4705882 C20.6470588,13.2811765 19.6305882,14.9223529 18,15.7058824 L18,7.23529412 C19.62,8.02941176 20.6470588,9.67058824 20.6470588,11.4705882 Z" id="Shape" fill="#FFFFFF" fill-rule="nonzero"></path></g><g id="automation-2" transform="translate(25.000000, 267.000000)" fill="#FFFFFF" fill-rule="nonzero"><path d="M4.24836886,6.34386423 C3.07465161,6.71280385 2.02533253,7.36253063 1.17914954,8.21430664 C1.54061565,6.34766536 2.44952327,4.56591431 3.90995605,3.12222222 C7.81021965,-0.733333333 14.066198,-0.733333333 17.9664616,3.12222222 L21,0 L21,7.91111111 L13.4661575,7.91111111 L16.5108077,4.77777778 C13.4772693,1.77777778 8.56582628,1.66666667 5.53228792,4.66666667 C5.01667615,5.17846646 4.58870314,5.74355214 4.24836886,6.34386423 Z M12.7760784,17.6077524 C14.1443657,17.2948705 15.4437613,16.6108049 16.5108077,15.5555556 C18.0220209,14.0555556 18.7776276,12.3111111 18.7776276,10.1111111 L21,10.1111111 C21,12.3111111 20.0221561,15.1666667 18.0664684,17.1 C15.9352702,19.21284 13.0774798,20.1711733 10.2871522,19.9749997 C11.2882565,19.3882005 12.1411499,18.5758669 12.7760784,17.6077524 Z" id="Shape"></path><path d="M6,16 C4.8954305,16 4,15.1045695 4,14 C4,12.8954305 4.8954305,12 6,12 C7.1045695,12 8,12.8954305 8,14 C8,15.1045695 7.1045695,16 6,16 Z M10.5844237,14.582 C10.609097,14.39 10.6276019,14.198 10.6276019,14 C10.6276019,13.802 10.609097,13.604 10.5844237,13.4 L11.8859391,12.422 C12.0031371,12.332 12.0339787,12.17 11.9599589,12.038 L10.726295,9.962 C10.6522752,9.83 10.4857306,9.776 10.3500276,9.83 L8.81411604,10.43 C8.49336344,10.196 8.16027419,9.992 7.77167007,9.842 L7.54344226,8.252 C7.51876898,8.108 7.38923427,8 7.23502629,8 L4.76769856,8 C4.61349057,8 4.48395587,8.108 4.45928259,8.252 L4.23105478,9.842 C3.84245066,9.992 3.50936141,10.196 3.18860881,10.43 L1.65269729,9.83 C1.51699427,9.776 1.35044965,9.83 1.27642981,9.962 L0.0427659473,12.038 C-0.037422204,12.17 -0.000412288039,12.332 0.116785779,12.422 L1.41830116,13.4 C1.39362788,13.604 1.37512292,13.802 1.37512292,14 C1.37512292,14.198 1.39362788,14.39 1.41830116,14.582 L0.116785779,15.578 C-0.000412288039,15.668 -0.037422204,15.83 0.0427659473,15.962 L1.27642981,18.038 C1.35044965,18.17 1.51699427,18.218 1.65269729,18.17 L3.18860881,17.564 C3.50936141,17.804 3.84245066,18.008 4.23105478,18.158 L4.45928259,19.748 C4.48395587,19.892 4.61349057,20 4.76769856,20 L7.23502629,20 C7.38923427,20 7.51876898,19.892 7.54344226,19.748 L7.77167007,18.158 C8.16027419,18.002 8.49336344,17.804 8.81411604,17.564 L10.3500276,18.17 C10.4857306,18.218 10.6522752,18.17 10.726295,18.038 L11.9599589,15.962 C12.0339787,15.83 12.0031371,15.668 11.8859391,15.578 L10.5844237,14.582 Z" id="Shape"></path></g><g id="messages-2" transform="translate(25.000000, 212.000000)" fill="#FFFFFF" fill-rule="nonzero"><path d="M15,10 L15,1 C15,0.44771525 14.5522847,0 14,0 L1,0 C0.44771525,0 0,0.44771525 0,1 L0,15 L4,11 L14,11 C14.5522847,11 15,10.5522847 15,10 Z M19,4 L17,4 L17,13 L4,13 L4,15 C4,15.5522847 4.44771525,16 5,16 L16,16 L20,20 L20,5 C20,4.44771525 19.5522847,4 19,4 Z" id="Shape"></path></g><g id="contacts" transform="translate(25.000000, 153.000000)" fill="#FFFFFF" fill-rule="nonzero"><path d="M2,4 L0,4 L0,18 C0,19.1045695 0.8954305,20 2,20 L16,20 L16,18 L2,18 L2,4 Z M18,0 C19.1045695,0 20,0.8954305 20,2 L20,14 C20,15.1045695 19.1045695,16 18,16 L6,16 C4.8954305,16 4,15.1045695 4,14 L4,2 C4,0.8954305 4.8954305,0 6,0 L18,0 Z M15,5 C15,3.34314575 13.6568542,2 12,2 C10.3431458,2 9,3.34314575 9,5 C9,6.65685425 10.3431458,8 12,8 C13.6568542,8 15,6.65685425 15,5 Z M6,13 L6,14 L18,14 L18,13 C18,11 14,9.9 12,9.9 C10,9.9 6,11 6,13 Z" id="Shape"></path></g><g id="dashboard" transform="translate(25.000000, 96.000000)" fill="#FFFFFF" fill-rule="nonzero"><path d="M17,2 L17,4 L13,4 L13,2 L17,2 Z M7,2 L7,8 L3,8 L3,2 L7,2 Z M17,10 L17,16 L13,16 L13,10 L17,10 Z M7,14 L7,16 L3,16 L3,14 L7,14 Z M19,0 L11,0 L11,6 L19,6 L19,0 Z M9,0 L1,0 L1,10 L9,10 L9,0 Z M19,8 L11,8 L11,18 L19,18 L19,8 Z M9,12 L1,12 L1,18 L9,18 L9,12 Z" id="Shape"></path></g><g id="Logo" transform="translate(19.000000, 30.000000)" fill="#FFFFFF" fill-rule="nonzero"><path d="M15.5,0 C24.0603859,0 31,6.94960812 31,15.5223222 C31,24.0950363 24.0603859,31.0446445 15.5,31.0446445 C14.0776652,31.0446445 12.7019976,30.8491728 11.393693,30.4899273 L6.69816209,35 L6.69816209,28.2970681 C2.65231961,25.4962554 0,20.8203774 0,15.5223222 C0,6.94960812 6.93961408,0 15.5,0 Z M15.5,4.96522496 C11.7199576,4.96522496 8.40658706,6.95854862 6.54598647,9.951582 L6.54598647,6.095791 C6.54598647,5.59309143 6.1349094,5.18142235 5.63293275,5.18142235 C5.13055031,5.18142235 4.71987903,5.59309143 4.71987903,6.095791 L4.71987903,18.1349782 C4.71987903,18.6132946 5.09240495,19.004238 5.56029427,19.0420319 C7.00819456,23.1416546 10.9103833,26.0798258 15.5,26.0798258 C21.3224421,26.0798258 26.0423211,21.3531495 26.0423211,15.5223222 C26.0423211,9.69190131 21.3224421,4.96522496 15.5,4.96522496 Z" id="Combined-Shape"></path><path d="M20.831361,18 L10.1686391,18 C8.42558579,18 7,16.6502857 7,15 C7,13.3500952 8.42558579,12 10.1686391,12 L20.831361,12 C22.5740117,12 24,13.3500952 24,15 C24,16.6502857 22.5740117,18 20.831361,18 Z M22.4911243,15 C22.4911243,14.1847619 21.7930177,13.5238095 20.9319528,13.5238095 C20.0708876,13.5238095 19.3727811,14.1847619 19.3727811,15 C19.3727811,15.815619 20.0708876,16.4761905 20.9319528,16.4761905 C21.7930177,16.4761905 22.4911243,15.815619 22.4911243,15 Z M11.4260355,15 C11.4260355,14.1847619 10.727929,13.5238095 9.86686391,13.5238095 C9.00579882,13.5238095 8.30769231,14.1847619 8.30769231,15 C8.30769231,15.815619 9.00579882,16.4761905 9.86686391,16.4761905 C10.727929,16.4761905 11.4260355,15.815619 11.4260355,15 Z" id="Combined-Shape"></path></g></g></g></g></g></svg> 