<?xml version="1.0" encoding="UTF-8"?> <svg xmlns="http://www.w3.org/2000/svg" xmlns:xlink="http://www.w3.org/1999/xlink" width="1024px" height="1024px" viewBox="0 0 1024 1024"><!-- Generator: Sketch 50.2 (55047) - http://www.bohemiancoding.com/sketch --><title>White</title><desc>Created with Sketch.</desc><defs></defs><g id="White" stroke="none" stroke-width="1" fill="none" fill-rule="evenodd"><g id="kik_logo_green" transform="translate(0.000000, 253.000000)" fill="#FFFFFF" fill-rule="nonzero"><path d="M965.004404,244.676698 C997.580798,244.676698 1023.98024,271.041634 1023.98024,303.567577 C1023.98024,336.093519 997.580798,362.458455 965.004404,362.458455 C932.430677,362.458455 906.033898,336.093519 906.033898,303.567577 C906.033898,271.041634 932.430677,244.676698 965.004404,244.676698" id="Fill-1"></path><path d="M436.790656,513.980669 L436.705273,513.980669 C407.216018,513.980669 383.311365,489.995028 383.322037,460.418446 L383.402084,193.346012 C383.412758,163.675758 407.469501,139.671381 437.046806,139.815906 C466.429332,139.957753 490.171223,163.889868 490.171223,193.359394 L490.17656,460.431827 C490.17656,490.005733 466.274575,513.980669 436.790656,513.980669" id="Fill-3"></path><path d="M214.95244,298.945075 L282.402573,232.362304 C304.220672,210.825544 303.743059,175.390385 281.353959,154.450455 C260.322987,134.779125 227.58383,135.18058 207.038476,155.365774 L107.062644,253.577901 L106.649069,54.7743513 C106.590368,25.8374227 84.1665809,1.20409953 55.3363785,0.133550938 C25.0119684,-0.993201459 0.0026682279,23.3376917 0.0026682279,53.5806895 L0,460.630029 C0,490.02997 23.7605694,513.863058 53.0710529,513.863058 C82.3788683,513.863058 106.139438,490.032646 106.142106,460.632705 L106.144774,394.173048 L133.045848,369.13827 L223.976387,491.91146 C241.458616,515.517056 274.624689,520.615543 298.350572,503.344918 C322.407313,485.83342 327.623699,452.01479 309.970703,428.031824 L214.95244,298.945075 Z" id="Fill-5"></path><path d="M773.313297,298.945075 L840.763431,232.362304 C862.58153,210.825544 862.103917,175.390385 839.714817,154.450455 C818.683845,134.779125 785.944688,135.18058 765.399334,155.365774 L665.423502,253.577901 L665.009927,54.7743513 C664.951226,25.8374227 642.527439,1.20409953 613.697236,0.133550938 C583.372827,-0.993201459 558.363526,23.3376917 558.363526,53.5806895 L558.360858,460.630029 C558.360858,490.02997 582.121427,513.863058 611.431911,513.863058 C640.742394,513.863058 664.500295,490.032646 664.502964,460.632705 L664.505632,394.173048 L691.406706,369.13827 L782.337244,491.91146 C799.819474,515.517056 832.985546,520.615543 856.711428,503.344918 C880.768171,485.83342 885.984557,452.01479 868.331561,428.031824 L773.313297,298.945075 Z" id="Fill-8"></path></g></g></svg> 