<?xml version="1.0" encoding="UTF-8"?> <svg xmlns="http://www.w3.org/2000/svg" xmlns:xlink="http://www.w3.org/1999/xlink" width="1024px" height="1024px" viewBox="0 0 1024 1024"><!-- Generator: Sketch 50.2 (55047) - http://www.bohemiancoding.com/sketch --><title>White</title><desc>Created with Sketch.</desc><defs></defs><g id="White" stroke="none" stroke-width="1" fill="none" fill-rule="evenodd"><g id="Group" transform="translate(512.000000, 512.405530) scale(1, -1) translate(-512.000000, -512.405530) translate(0.000000, 24.000000)" fill="#FFFFFF" fill-rule="nonzero"><path d="M1023.98598,560.183126 C1023.98598,789.284151 794.315691,975.670428 511.988085,975.670428 C229.699738,975.670428 0,789.284151 0,560.183126 C0,354.795068 182.14621,182.787722 428.187873,150.260912 C444.863506,146.668633 467.555717,139.268146 473.297474,125.01681 C478.460148,112.070865 476.673824,91.7931371 474.946389,78.7195973 C474.946389,78.7195973 468.939627,42.5906934 467.644051,34.8957571 C465.416053,21.9498119 457.357963,-15.7298572 511.988085,7.29606201 C566.637837,30.3219812 806.849408,180.913063 914.264437,304.552238 L914.244808,304.552238 C988.445979,385.918337 1023.98598,468.491678 1023.98598,560.183126 Z M853.478365,615.031185 L755.90775,615.031185 L755.90775,577.331886 L853.478365,577.331886 C858.984563,577.331886 863.430744,572.85626 863.430744,567.350062 L863.430744,531.437087 C863.430744,525.930889 858.984563,521.465078 853.478365,521.465078 L755.90775,521.465078 L755.90775,483.755964 L853.478365,483.755964 C858.984563,483.755964 863.430744,479.280338 863.430744,473.783955 L863.430744,437.861165 C863.430744,432.364782 858.984563,427.889156 853.478365,427.889156 L710.012951,427.889156 L709.993321,427.889156 C707.323649,427.889156 704.899352,428.958988 703.113027,430.676607 C703.063952,430.715867 703.005063,430.764942 702.965803,430.814017 C702.916728,430.853277 702.867653,430.912167 702.828393,430.961241 C701.110773,432.747566 700.040942,435.171863 700.040942,437.85135 L700.040942,437.861165 L700.040942,660.916169 L700.040942,660.925984 C700.040942,663.595656 701.100958,666.010138 702.808763,667.796463 C702.857838,667.855353 702.906913,667.914242 702.965803,667.973132 C702.995248,668.012392 703.044322,668.041837 703.083582,668.081097 C704.879722,669.818347 707.304019,670.897993 709.993321,670.897993 L710.012951,670.897993 L853.478365,670.897993 C858.984563,670.897993 863.430744,666.422367 863.430744,660.916169 L863.430744,625.003194 C863.430744,619.487181 858.984563,615.031185 853.478365,615.031185 Z M655.154103,670.892096 C660.670116,670.892096 665.126112,666.426285 665.126112,660.939716 L665.126112,437.845453 C665.126112,432.34907 660.670116,427.893073 655.154103,427.893073 L619.241128,427.893073 C618.357781,427.893073 617.503879,428.020668 616.689236,428.236597 C616.640161,428.246412 616.591087,428.266042 616.542012,428.266042 C616.316267,428.334747 616.100338,428.403452 615.864779,428.491786 C615.766629,428.521231 615.668479,428.560491 615.57033,428.599751 C615.39366,428.668456 615.246436,428.737161 615.079581,428.805865 C614.922542,428.87457 614.755687,428.95309 614.608463,429.041425 C614.510313,429.0905 614.421978,429.129759 614.323829,429.188649 C614.117714,429.306429 613.9116,429.434024 613.705485,429.561618 C613.676041,429.591063 613.636781,429.620508 613.607336,429.640138 C612.655284,430.287926 611.781751,431.102568 611.075074,432.103695 L508.714753,570.347545 L508.714753,437.845453 C508.714753,432.34907 504.248942,427.893073 498.732929,427.893073 L462.82977,427.893073 C457.323571,427.893073 452.847945,432.34907 452.847945,437.845453 L452.847945,660.939716 C452.847945,666.426285 457.323571,670.892096 462.82977,670.892096 L498.732929,670.892096 C498.860524,670.892096 498.958673,670.872466 499.086268,670.872466 C499.262937,670.862651 499.429792,670.862651 499.596646,670.843021 C499.773316,670.823391 499.949985,670.813576 500.126655,670.774316 C500.264064,670.764501 500.411289,670.744871 500.548699,670.725241 C500.735183,670.685981 500.921667,670.636907 501.117967,670.597647 C501.235746,670.558387 501.353526,670.538757 501.461491,670.499497 C501.667605,670.450422 501.863904,670.381717 502.060204,670.313013 C502.168169,670.273753 502.266318,670.234493 502.384098,670.195233 C502.580397,670.126528 502.766882,670.038193 502.953366,669.949859 C503.061331,669.910599 503.15948,669.851709 503.267445,669.802634 C503.444115,669.714299 503.620784,669.606335 503.797454,669.49837 C503.905418,669.449295 504.003568,669.390405 504.101718,669.321701 C504.278387,669.213736 504.445242,669.086141 504.621911,668.968362 C504.710246,668.899657 504.79858,668.840767 504.8771,668.762247 C505.063585,668.624838 505.240254,668.477613 505.407109,668.320574 C505.475813,668.261684 505.534703,668.212609 505.593593,668.153719 C505.799707,667.95742 505.996007,667.76112 506.192306,667.535376 L506.261011,667.476486 C506.53583,667.152592 506.800834,666.818883 507.036394,666.465544 L609.269119,528.398364 L609.269119,660.939716 C609.269119,666.426285 613.73493,670.892096 619.241128,670.892096 L655.154103,670.892096 Z M407.965104,670.892096 C413.471302,670.892096 417.937113,666.426285 417.937113,660.939716 L417.937113,437.845453 C417.937113,432.34907 413.471302,427.893073 407.965104,427.893073 L372.052129,427.893073 C366.545931,427.893073 362.070305,432.34907 362.070305,437.845453 L362.070305,660.939716 C362.070305,666.426285 366.545931,670.892096 372.052129,670.892096 L407.965104,670.892096 Z M321.396108,483.755919 C326.902307,483.755919 331.348488,479.290108 331.348488,473.783909 L331.348488,437.870935 C331.348488,432.364737 326.902307,427.889111 321.396108,427.889111 L177.930695,427.889111 L177.92088,427.889111 C175.241393,427.889111 172.82691,428.949127 171.030771,430.676562 C170.981696,430.725637 170.932621,430.764897 170.883546,430.813972 C170.824657,430.863047 170.785397,430.912121 170.746137,430.961196 C169.028517,432.747521 167.958685,435.171818 167.958685,437.851305 L167.958685,437.870935 L167.958685,660.925939 C167.958685,666.432137 172.424497,670.897948 177.930695,670.897948 L213.853484,670.897948 C219.349867,670.897948 223.815679,666.432137 223.815679,660.925939 L223.815679,483.755919 L321.396108,483.755919 Z" id="Shape"></path></g></g></svg> 