<?xml version="1.0" encoding="UTF-8"?> <svg xmlns="http://www.w3.org/2000/svg" xmlns:xlink="http://www.w3.org/1999/xlink" width="1024px" height="1024px" viewBox="0 0 1024 1024"><!-- Generator: Sketch 50.2 (55047) - http://www.bohemiancoding.com/sketch --><title>White</title><desc>Created with Sketch.</desc><defs></defs><g id="White" stroke="none" stroke-width="1" fill="none" fill-rule="evenodd"><g id="Slack_Mark_Monochrome_White" fill="#FFFFFF" fill-rule="nonzero"><rect id="Rectangle-path" transform="translate(511.923267, 512.845273) rotate(-18.518296) translate(-511.923267, -512.845273) " x="439.915245" y="443.29207" width="144.016044" height="139.106406"></rect><g id="Group"><rect id="Rectangle-path" transform="translate(511.923267, 512.845273) rotate(-18.518296) translate(-511.923267, -512.845273) " x="439.915245" y="443.29207" width="144.016044" height="139.106406"></rect><path d="M980.819104,371.316071 C875.259409,19.4504222 723.057059,-62.3787985 371.19141,43.1808962 C19.3257605,148.740591 -62.5034602,300.942941 43.0562345,652.80859 C148.615929,1004.67424 300.81828,1086.50346 652.683929,980.943766 C1004.54958,875.384071 1086.3788,723.18172 980.819104,371.316071 Z M803.249695,599.619597 L736.968026,621.713487 L759.880208,690.450032 C768.881422,718.271967 754.152162,748.548779 726.330227,757.549993 C720.602182,759.186577 714.055844,760.823162 708.327799,760.00487 C687.052201,759.186577 666.594896,745.27561 659.230266,724.000012 L636.318085,655.263467 L499.663286,701.087831 L522.575468,769.824376 C531.576682,797.646311 516.847422,827.923123 489.025487,836.924337 C483.297442,838.560921 476.751104,840.197506 471.023059,839.379214 C449.747461,838.560921 429.290156,824.649954 421.925526,803.374357 L399.013345,734.637811 L332.731676,756.731701 C327.00363,758.368285 320.457293,760.00487 314.729247,759.186577 C293.45365,758.368285 272.996345,744.457318 265.631715,723.18172 C256.630501,695.359785 271.35976,665.082974 299.181695,656.081759 L365.463364,633.98787 L321.275585,502.242824 L254.993916,524.336714 C249.265871,525.973298 242.719533,527.609883 236.991488,526.791591 C215.71589,525.973298 195.258585,512.062331 187.893955,490.786733 C178.892741,462.964798 193.622001,432.687987 221.443936,423.686772 L287.725604,401.592883 L264.813423,332.856338 C255.812208,305.034402 270.541468,274.757591 298.363403,265.756377 C326.185338,256.755162 356.46215,271.484422 365.463364,299.306357 L388.375546,368.042902 L525.030344,322.218539 L502.118163,253.481993 C493.116948,225.660058 507.846208,195.383247 535.668143,186.382032 C563.490078,177.380818 593.76689,192.110078 602.768104,219.932013 L625.680286,288.668558 L691.961955,266.574669 C719.78389,257.573454 750.060701,272.302714 759.061916,300.124649 C768.06313,327.946584 753.33387,358.223396 725.511935,367.22461 L659.230266,389.3185 L703.418046,521.063545 L769.699714,498.969656 C797.521649,489.968441 827.798461,504.697701 836.799675,532.519636 C845.80089,560.341571 831.07163,590.618383 803.249695,599.619597 Z" id="Shape"></path></g></g></g></svg> 