<?xml version="1.0" encoding="UTF-8"?> <svg xmlns="http://www.w3.org/2000/svg" xmlns:xlink="http://www.w3.org/1999/xlink" width="1024px" height="1024px" viewBox="0 0 1024 1024"><!-- Generator: Sketch 50.2 (55047) - http://www.bohemiancoding.com/sketch --><title>White</title><desc>Created with Sketch.</desc><defs></defs><g id="White" stroke="none" stroke-width="1" fill="none" fill-rule="evenodd"><g id="Twitter_Logo_Blue" transform="translate(0.000000, 95.000000)" fill="#FFFFFF" fill-rule="nonzero"><path d="M322.02752,832.11264 C708.44416,832.11264 919.79776,511.96928 919.79776,234.3424 C919.79776,225.24928 919.79776,216.19712 919.18336,207.18592 C960.300293,177.445309 995.79312,140.62098 1024,98.43712 C985.656486,115.427401 944.981167,126.569621 903.33184,131.49184 C947.189514,105.235745 980.014019,63.9394605 995.69664,15.28832 C954.456371,39.7600897 909.338464,57.0065724 862.28992,66.28352 C797.16691,-2.96369034 693.687065,-19.9121885 609.875938,24.9417698 C526.064812,69.7957282 482.765824,165.297182 504.25856,257.8944 C335.335249,249.425901 177.949728,169.638841 71.2704,38.38976 C15.5083881,134.385448 43.9905437,257.192324 136.31488,318.84288 C102.88092,317.851957 70.1759231,308.832796 40.96,292.54656 C40.96,293.40672 40.96,294.30784 40.96,295.20896 C40.9873667,395.216608 111.482941,481.35312 209.5104,501.15584 C178.580259,509.591144 146.128101,510.824214 114.64704,504.76032 C142.170027,590.343079 221.043694,648.971627 310.92736,650.65984 C236.533147,709.127452 144.632198,740.867184 50.01216,740.77184 C33.2965302,740.73975 16.5971585,739.727667 0,737.7408 C96.0772485,799.396928 207.868453,832.101045 322.02752,831.9488" id="Shape"></path></g></g></svg> 