<?xml version="1.0" encoding="UTF-8"?> <svg xmlns="http://www.w3.org/2000/svg" xmlns:xlink="http://www.w3.org/1999/xlink" width="1024px" height="1024px" viewBox="0 0 1024 1024"><!-- Generator: Sketch 50.2 (55047) - http://www.bohemiancoding.com/sketch --><title>White</title><desc>Created with Sketch.</desc><defs></defs><g id="White" stroke="none" stroke-width="1" fill="none" fill-rule="evenodd"><g id="purple_Purple_icon" transform="translate(27.000000, 1.000000)"><path d="M859.516168,99.7137725 C834.069461,76.4131737 731.516168,1.91257485 503.108982,0.839520958 C503.108982,0.839520958 233.619162,-15.4095808 102.246707,105.079042 C29.1257485,178.2 3.37245509,285.198802 0.766467066,417.950898 C-1.99281437,550.702994 -5.51856287,799.191617 234.232335,866.640719 C234.232335,866.640719 234.385629,866.640719 234.385629,866.640719 L234.232335,969.500599 C234.232335,969.500599 232.699401,1011.19641 260.138922,1019.62754 C293.250299,1029.8982 312.718563,998.31976 344.450299,964.135329 C361.772455,945.433533 385.839521,917.840719 403.928144,896.839521 C567.798802,910.635928 693.959281,879.057485 708.215569,874.458683 C741.326946,863.728144 928.651497,839.661078 959.003593,591.172455 C990.428743,335.019162 943.674251,172.834731 859.516168,99.7137725 Z M887.262275,572.777246 C861.508982,780.336527 709.59521,793.51976 681.695808,802.410778 C669.738922,806.243114 559.061078,833.835928 419.870659,824.638323 C419.870659,824.638323 316.091018,949.725749 283.746108,982.377246 C278.687425,987.435928 272.708982,989.582036 268.723353,988.508982 C263.20479,987.129341 261.671856,980.537725 261.671856,970.88024 C261.82515,957.083832 262.591617,799.958084 262.591617,799.958084 C262.438323,799.958084 262.438323,799.958084 262.591617,799.958084 C59.9377246,743.699401 71.7413174,532.001198 74.0407186,421.17006 C76.3401198,310.338922 97.188024,219.589222 158.965269,158.578443 C270.102994,58.0179641 498.97006,73.0407186 498.97006,73.0407186 C692.273054,73.960479 784.862275,132.058683 806.323353,151.526946 C877.451497,212.691018 913.782036,358.779641 887.262275,572.777246 Z" id="Shape" fill="#FFFFFF" fill-rule="nonzero"></path><path d="M597.077844,412.279042 C594.62515,361.538922 568.871856,335.019162 519.817964,332.413174" id="Shape" stroke="#FFFFFF" stroke-width="16.8562" stroke-linecap="round" stroke-linejoin="round"></path><path d="M663.300599,434.506587 C664.373653,387.292216 650.423952,347.895808 621.298204,316.164072 C592.172455,284.432335 551.856287,266.803593 500.043114,263.124551" id="Shape" stroke="#FFFFFF" stroke-width="16.8562" stroke-linecap="round" stroke-linejoin="round"></path><path d="M731.209581,461.026347 C730.596407,379.014371 706.069461,314.631138 657.782036,267.416766 C609.494611,220.355689 549.250299,196.441916 477.355689,195.982036" id="Shape" stroke="#FFFFFF" stroke-width="16.8562" stroke-linecap="round" stroke-linejoin="round"></path><path d="M522.423952,585.347305 C522.423952,585.347305 540.665868,586.88024 550.323353,574.77006 L569.331737,550.856287 C578.529341,538.899401 600.756886,531.388024 622.524551,543.498204 C634.634731,550.396407 656.402395,563.732934 669.892216,573.697006 C684.301796,584.274251 713.887425,608.954491 713.887425,608.954491 C727.990419,620.758084 731.209581,638.233533 721.705389,656.628743 C721.705389,656.782036 721.552096,656.935329 721.552096,656.935329 C711.741317,674.257485 698.558084,690.65988 681.849102,705.835928 C681.695808,705.989222 681.695808,705.989222 681.542515,706.142515 C667.899401,717.486228 654.409581,724.077844 641.226347,725.610778 C639.693413,725.917365 637.700599,726.070659 635.401198,725.917365 C629.576048,725.917365 623.904192,725.150898 618.232335,723.311377 L617.772455,722.698204 C597.384431,717.026347 563.506587,702.616766 506.941317,671.498204 C470.150898,651.263473 439.645509,630.568862 413.892216,610.027545 C400.249102,599.297006 386.299401,587.033533 372.043114,572.930539 C371.583234,572.470659 371.123353,572.010778 370.663473,571.550898 C370.203593,571.091018 369.743713,570.631138 369.283832,570.171257 C369.283832,570.171257 369.283832,570.171257 369.283832,570.171257 C368.823952,569.711377 368.364072,569.251497 367.904192,568.791617 C367.444311,568.331737 366.984431,567.871856 366.524551,567.411976 C352.421557,553.155689 340.158084,539.205988 329.427545,525.562874 C308.886228,499.809581 288.191617,469.150898 267.956886,432.513772 C236.838323,375.948503 222.428743,342.070659 216.756886,321.682635 L216.143713,321.222754 C214.304192,315.550898 213.384431,309.879042 213.537725,304.053892 C213.384431,301.754491 213.537725,299.761677 213.844311,298.228743 C215.377246,285.045509 221.968862,271.555689 233.312575,257.912575 C233.465868,257.759281 233.465868,257.759281 233.619162,257.605988 C248.79521,240.897006 265.044311,227.713772 282.51976,217.902994 C282.673054,217.902994 282.826347,217.749701 282.826347,217.749701 C301.221557,208.245509 318.697006,211.464671 330.500599,225.567665 C330.653892,225.720958 355.180838,255.153293 365.758084,269.562874 C375.722156,283.205988 389.211976,304.820359 395.956886,316.930539 C408.067066,338.698204 400.555689,360.925749 388.598802,370.123353 L364.68503,389.131737 C352.57485,398.942515 354.107784,417.031138 354.107784,417.031138 C354.107784,417.031138 389.671856,551.469461 522.423952,585.347305 Z" id="Shape" fill="#FFFFFF" fill-rule="nonzero"></path></g></g></svg> 