<?xml version="1.0" encoding="UTF-8"?> <svg xmlns="http://www.w3.org/2000/svg" xmlns:xlink="http://www.w3.org/1999/xlink" width="1024px" height="1024px" viewBox="0 0 1024 1024"><!-- Generator: Sketch 50.2 (55047) - http://www.bohemiancoding.com/sketch --><title>White</title><desc>Created with Sketch.</desc><defs></defs><g id="White" stroke="none" stroke-width="1" fill="none" fill-rule="evenodd"><g id="Internet" fill="#FFFFFF" fill-rule="nonzero"><path d="M512,1024 C794.770286,1024 1024,794.772376 1024,512 C1024,229.229714 794.770286,0 512,0 C229.229714,0 0,229.229714 0,512 C0,794.772376 229.229714,1024 512,1024 Z M512,52.5 C765.367496,52.5 971.5,258.632504 971.5,512 C971.5,765.36964 765.367496,971.5 512,971.5 C258.632504,971.5 52.5,765.36964 52.5,512 C52.5,258.632504 258.632504,52.5 512,52.5 Z" id="Shape"></path><polygon id="Shape" points="231.505851 463.508269 273.853248 625 319.370744 625 371.014085 409 327.811642 409 295.186522 559.888261 257.897949 409 206.859572 409 168.003811 557.354175 135.950309 409 92 409 142.752568 625 189.30136 625"></polygon><polygon id="Shape" points="469.30136 625 511.505851 463.508269 553.853248 625 599.370744 625 651.014085 409 607.811642 409 575.186522 559.888261 537.897949 409 486.859572 409 448.003811 557.354175 415.950309 409 372 409 422.752568 625"></polygon><polygon id="Shape" points="750.287275 625 792.491767 463.508269 834.839163 625 880.35666 625 932 409 888.797558 409 856.172438 559.888261 818.883865 409 767.845487 409 728.989727 557.354175 696.936225 409 652.985915 409 703.738484 625"></polygon></g></g></svg> 