<?xml version="1.0" encoding="UTF-8"?> <svg xmlns="http://www.w3.org/2000/svg" xmlns:xlink="http://www.w3.org/1999/xlink" width="1024px" height="1024px" viewBox="0 0 1024 1024"><!-- Generator: Sketch 50.2 (55047) - http://www.bohemiancoding.com/sketch --><title>White</title><desc>Created with Sketch.</desc><defs></defs><g id="White" stroke="none" stroke-width="1" fill="none" fill-rule="evenodd"><g id="Group" transform="translate(0.000000, 99.000000)" fill="#FFFFFF"><path d="M1024,540.375904 C1024,398.532689 885.899022,283.759036 715.566265,283.759036 C545.224704,283.759036 407.13253,398.532689 407.13253,540.375904 C407.13253,681.708357 545.224704,796.48201 715.566265,796.992771 C750.756218,796.48201 784.740011,791.467797 816.73253,782.187952 C819.10238,781.553531 818.908434,781.581928 825.115663,780.364157 C831.322892,779.146386 836.72259,782.187952 841.407229,784.655422 L908.028916,824.13494 C911.096332,825.776953 912.909974,826.60241 915.431325,826.60241 C920.833657,826.60241 925.420588,822.009707 925.301205,816.73253 C925.420588,813.816607 924.489006,811.498946 923.766114,809.055873 C923.043223,806.612801 914.776284,776.511152 910.496386,757.513253 C909.890361,754.823193 909.559036,753.274699 909.559036,748.181928 C909.559036,743.089157 912.196843,737.619898 917.898795,732.838554 C982.444688,686.898198 1024,617.357834 1024,540.375904 Z M610.736181,495.961446 C590.134697,495.961446 572.453012,478.290104 572.453012,455.285579 C572.453012,434.682202 590.134697,417.00241 610.736181,417.00241 C633.747267,417.00241 651.412048,434.682202 651.412048,455.285579 C651.412048,478.290104 633.747267,495.961446 610.736181,495.961446 M815.536181,495.961446 C794.934697,495.961446 777.253012,478.290104 777.253012,455.285579 C777.253012,434.682202 794.934697,417.00241 815.536181,417.00241 C838.547267,417.00241 856.212048,434.682202 856.212048,455.285579 C856.212048,478.290104 838.547267,495.961446 815.536181,495.961446" id="Bubble-2"></path><path d="M0,308.433735 C0,400.343421 49.8323143,483.775376 128.308434,540.375904 C134.088788,544.630386 137.181821,549.497088 137.179518,557.66747 C137.181821,560.491384 136.686032,563.527232 135.710843,567.518072 C129.150602,594.36506 121.943976,625.089157 120.906024,629.204819 C119.868072,633.320482 118.231851,636.062184 118.438554,639.074699 C118.231851,645.906119 123.740421,651.412048 130.775904,651.412048 C133.235223,651.412048 135.426332,650.41097 138.178313,648.944578 L219.604819,602.062651 C224.760193,598.943263 230.546988,597.335542 234.453012,597.335542 C238.359036,597.335542 244.878313,598.548193 249.214458,599.595181 C286.964789,609.243829 327.724683,615.276642 370.120482,614.4 C376.756231,615.276642 383.523148,615.101014 389.860241,614.4 C382.220802,590.794136 377.829786,565.521305 377.522892,540.375904 C377.829786,384.449111 528.875464,258.822592 715.566265,259.084337 C721.965782,258.822592 728.644703,259.033345 735.306024,259.084337 C707.44639,112.392969 554.491192,0 370.120482,0 C165.626668,0 0,137.744832 0,308.433735 Z M244.279518,259.084337 C217.020689,259.084337 194.93012,236.995739 194.93012,209.73494 C194.93012,182.482944 217.020689,160.385542 244.279518,160.385542 C271.538347,160.385542 293.628916,182.482944 293.628916,209.73494 C293.628916,236.995739 271.538347,259.084337 244.279518,259.084337 M491.026506,259.084337 C463.765707,259.084337 441.677108,236.995739 441.677108,209.73494 C441.677108,182.482944 463.765707,160.385542 491.026506,160.385542 C518.278501,160.385542 540.375904,182.482944 540.375904,209.73494 C540.375904,236.995739 518.278501,259.084337 491.026506,259.084337" id="Bubble-1"></path></g></g></svg> 