<?xml version="1.0" encoding="UTF-8"?> <svg xmlns="http://www.w3.org/2000/svg" xmlns:xlink="http://www.w3.org/1999/xlink" width="1024px" height="1024px" viewBox="0 0 1024 1024"><!-- Generator: Sketch 50.2 (55047) - http://www.bohemiancoding.com/sketch --><title>White</title><desc>Created with Sketch.</desc><defs></defs><g id="White" stroke="none" stroke-width="1" fill="none" fill-rule="evenodd"><path d="M511.30097,0 C453.119817,3.47862495 396.615506,16.687536 342.923029,39.3965784 C281.838637,65.2344104 226.990783,102.210418 179.902432,149.298769 C132.814081,196.385805 95.8380735,251.233659 70.0015566,312.31805 C45.6393454,369.917898 32.210801,430.753722 30,493.424866 L30,530.544885 C32.210801,593.216029 45.6393454,654.051195 70.0015566,711.651043 C95.8380735,772.735434 132.814081,827.583289 179.902432,874.670324 C226.990783,921.758675 281.838637,958.734683 342.923029,984.572515 C396.773984,1007.34863 453.661667,1020.56872 512.086127,1024 L573.188273,1024 C600.024319,1022.40207 626.578919,1018.68803 653.063815,1012.93679 L653.063815,904.611487 C617.339849,914.554173 580.24153,919.687282 542.873602,919.687282 C433.972256,919.687282 331.446854,877.278307 254.442329,800.273781 C177.436488,723.267941 134.957809,620.885893 134.957809,511.984547 C134.957809,403.083201 177.329959,300.701153 254.3358,223.695312 C331.337695,146.693417 433.699358,104.284441 542.597416,104.281811 C733.381254,104.287072 888.039998,258.949105 888.039998,449.7336 C888.039998,520.149123 866.972288,585.643279 830.795904,640.258349 L727.327526,385.984674 C715.631718,357.239001 683.52447,338.478099 652.494346,338.478099 C621.444495,338.497827 589.4372,357.208752 577.771641,385.984674 L481.610347,623.396553 L368.053299,343.642772 L254.345006,343.642772 L406.111692,717.19317 C417.954799,746.388631 450.117284,764.598477 481.624814,764.595847 C513.132345,764.591901 545.279048,746.238702 557.116894,717.03798 L652.591669,481.498903 L748.4268,716.998525 C758.732473,742.82452 788.920888,764.498524 823.821557,764.498524 C860.278072,764.498524 887.153574,739.560268 900.606449,723.490205 C958.720528,647.602259 993.253608,552.700898 993.253608,449.7336 C993.253608,210.651455 807.080756,15.0527795 571.800111,0 L511.30097,0 Z" id="Shape" fill="#FFFFFF"></path></g></svg> 